<svg viewBox="0 0 512 512" xmlns="http://www.w3.org/2000/svg"><path fill="#7EC345" stroke="#7EC345" opacity=".996" d="M60.5 0h391q11.74.76 20 5 11.48 4.75 19.5 12v2h2v2q2.67-1.12 2 1.5 14 13.5 17 38v391q-.76 11.74-5 20L495 491h-2v2h-2q1.12 2.67-1.5 2-13.5 14-38 17h-391q-11.74-.76-20-5L21 495v-2h-2v-2q-2.67 1.12-2-1.5-14.32-13.68-17-39v-389q3-2 1-9l4-12Q9.75 29.02 17 21h2v-2h2q-1.12-2.67 1.5-2Q36 3 60.5 0ZM304 77l-2 1-3 3q1 4-1 6l1 25 6 3v21l-41-31-7-3h-3l-17 12L92 220l-3 4q-1 5 2 7l19 12 4 5v113h-6l-8 4q-10 6-11 21l-8 4q-7 5-10 15-2 15 6 22-1 2 2 1v2l11 5h333l9-5q2 1 1-2h2l6-12q2-14-4-20-5-8-14-10v-4l-5-11q-5-7-13-10-7 1-7 0V248q9-10 22-16 4-2 3-8l-54-42h-2v-67l4-1 3-5-1-28-4-4h-65Z"/><path fill="#7EC345" stroke="#7EC345" opacity=".996" d="M312 90h47.5l.5.5V102h-47.5l-.5-.5V90ZM318 115h36v55.5l-1.5-.5-34.5-24.5V115ZM254.5 117l5 2 134 98 11.5 7-2.5 4-11 8-134-97h-4L237 150q1.12 2.67-1.5 2l-113 83h-4l-11.5-9.5L254.5 117Z"/><path fill="#7EC345" stroke="#7EC345" opacity=".996" d="M255.5 154 385 247v174.5l-.5.5H361V277.5l-1.5-1.5-4-2h-58l-1 1h-23q-1.5-2.5-7-1l-4.5 3.5V422H127V247.5l1.5-.5 18.5-13q-1.12-2.67 1.5-2l107-78ZM156 274l-4 2-1 3v48l-1 1v35l2 9 5 2q5 2 7-1h17l1 1h51l2-1 3-3v-54l1-1-1-36-3-4h-58l-1-1h-20Z"/><path fill="#7EC345" stroke="#7EC345" opacity=".996" d="M164 288h24v29h-24v-29ZM201 288h24v29h-24v-29ZM275 288h73v134h-73V288Zm16 54q-6 2-4 11 2 4 10 2l3-4-1-5q-1-5-8-4ZM164 330h24v31h-24v-31ZM201 330h24v31h-24v-31ZM110.5 374l3.5.5V422H91.5l-5.5-4.5q-3-3-2-10l5.5-7.5q3.64-2.86 11-2l1.5-1.5 1-9-1-3q.85-7.15 6.5-9.5l2-1ZM398 374q8.07.04 11 6.5l1 6q-2.75 1.75-1 8l2.5 3.5q9.45-.82 13.5 3 3.9 3.45 3 12.5l-5.5 7.5-3 1H398v-48Z"/><path fill="#FBFDFA" stroke="#FBFDFA" d="m307.5 77 62 1 2.5 1 1 2.5q-1.21 13.21 1 23l-2 8.5-5 2.5v66l3.5 3.5 51.5 37q1.75 8-3.5 10-12.21 5.79-20.5 15.5v113l3.5.5q11.14 2.36 16.5 10.5l3 5 1 9 1.5 1.5q9.05 2.45 13.5 9.5 4.63 5.88 4 17-2.19 11.81-10.5 17.5l-10 4h-329q-10.14-2.36-15.5-9.5-5.72-5.78-5-18 1.98-12.02 10.5-17.5l8.5-4.5q.32-15.18 10.5-20.5 5.25-4 13.5-4V247.5l-6.5-6.5L90 228.5q-1.5-7 2.5-8.5l160-117h7q21.56 18.45 45.5 33v-21.5l-2.5-.5-3.5-4.5v-27l3.5-4.5 5-1Zm3.5 13v12h50V90h-50Zm7 24v32l36 26h1v-56l-1-2h-36Zm-62 2L109 224q-4-1-2 3l13 9h2l121-89 13-8 135 97q9-4 15-10L256 116Zm0 37-125 91-4 4v175h135V279l4-4h49l1-1q23-2 42 1l3 4v144h24V248l-129-95Zm20 134-2 2v133l2 1h72V287h-72Zm-163 86-5 2-6 7v9l1 1-1 4-2 2q-8-1-11 2-5 3-6 10l1 6 9 7h21v-49l-1-1Zm285 0v50h21l6-3q3-3 4-8 0-7-3-9-3-6-13-5l-4-5 1-2q2-9-2-12-3-5-10-6Z"/><path fill="#FBFDFA" stroke="#FBFDFA" d="M154.5 275h80l2.5 2.5 1 5v45l-1 1v42l-1.5 1.5-5 2h-39l-1-1h-36l-2.5-2.5-1-3v-53l1-1v-30l-1-3 3.5-5.5Zm9.5 12v31h24v-31h-24Zm36 0v30l2 1h23v-31h-25Zm-36 43v31h24v-31h-24Zm36 0v31h25v-31h-25ZM289.5 343q6.12-.75 8.5 1 1.63 2.06 1 7.5-1.34 4.16-7.5 3.5l-4.5-3.5q-1.04-6.54 2.5-8.5Z"/><path fill="#7DC443" stroke="#7DC443" opacity=".09" d="m53.5 0 3.5.5-3.5.5V0ZM455.5 0l3.5.5-3.5.5V0ZM30.5 9l1.5.5-1.5.5V9ZM480.5 9l1.5.5-1.5.5V9ZM26.5 12l-1 2 1-2ZM485.5 12l1 2-1-2ZM13.5 25l-1 2 1-2ZM498.5 25l1 2-1-2ZM9.5 30l.5 1.5H9l.5-1.5ZM502.5 30l.5 1.5h-1l.5-1.5ZM.5 53l.5 3.5H0L.5 53ZM511.5 53l.5 3.5h-1l.5-3.5ZM.5 455l.5 3.5H0l.5-3.5ZM511.5 455l.5 3.5h-1l.5-3.5ZM9.5 480l.5 1.5H9l.5-1.5ZM502.5 480l.5 1.5h-1l.5-1.5ZM12.5 485l1 2-1-2ZM499.5 485l-1 2 1-2ZM25.5 498l1 2-1-2ZM486.5 498l-1 2 1-2ZM30.5 502l1.5.5-1.5.5v-1ZM480.5 502l1.5.5-1.5.5v-1ZM53.5 511l3.5.5-3.5.5v-1ZM455.5 511l3.5.5-3.5.5v-1Z"/><path fill="#AFD98B" stroke="#AFD98B" d="m303.5 77 3.5.5-3.5.5v-1ZM338.5 77l30.5.5-30.5.5v-1ZM301.5 78l-1.5 2.5-.5 1.5-.5-1.5 2.5-2.5ZM298.5 86l.5 18.5h-1l.5-18.5ZM311.5 90l.5 11.5h-1l.5-11.5ZM360.5 90l.5 11.5h-1l.5-11.5ZM373.5 92l.5 6.5h-1l.5-6.5ZM253.5 102l3.5.5-3.5.5v-1ZM260.5 103l1 2-1-2ZM250.5 104l-1 2 1-2ZM263.5 105l2 3-2-3ZM373.5 105l.5 3.5h-1l.5-3.5ZM246.5 107l-1 2 1-2ZM267.5 108l1 2-1-2ZM243.5 109l-1 2 1-2ZM299.5 110l2.5 3.5-3-2 .5-1.5ZM271.5 111l1 2-1-2ZM239.5 112l-1 2 1-2ZM236.5 114l-2 3 2-3ZM275.5 114l1 2-1-2ZM303.5 114l1.5.5-1.5.5v-1ZM318.5 114h35l1.5 1.5v56l-1.5.5-1-2 1.5.5V115h-35.5v-1ZM257.5 117l1 2-1-2ZM279.5 117l2 3-2-3ZM231.5 118l-1 2 1-2ZM252.5 118l-2 3 2-3ZM228.5 120l-1 2 1-2ZM261.5 120l1 2-1-2ZM283.5 120l2 3-2-3ZM248.5 121l-1 2 1-2ZM264.5 122l1 2-1-2ZM224.5 123l-1 2 1-2ZM287.5 123l2 3-2-3ZM244.5 124l-1 2 1-2ZM268.5 125l1 2-1-2ZM240.5 127l-1 2 1-2ZM217.5 128l-2 3 2-3ZM237.5 129l-1 2 1-2ZM295.5 129l1 2-1-2ZM213.5 131l-1 2 1-2ZM233.5 132l-1 2 1-2ZM279.5 133l1 2-1-2ZM209.5 134l-1 2 1-2ZM230.5 134l-2 3 2-3ZM302.5 134l1 2-1-2ZM206.5 136l-1 2 1-2ZM286.5 138l1 2-1-2ZM202.5 139l-1 2 1-2ZM253.5 139l1.5.5-1.5.5v-1ZM257.5 139l1 2-1-2ZM222.5 140l-1 2 1-2ZM251.5 140l-1 2 1-2ZM198.5 142l-1 2 1-2ZM261.5 142l1 2-1-2ZM218.5 143l-1 2 1-2ZM247.5 143l-1 2 1-2ZM293.5 143l1 2-1-2ZM195.5 144l-2 3 2-3ZM264.5 144l1 2-1-2ZM244.5 145l-1 2 1-2ZM297.5 146l1 2-1-2ZM268.5 147l1 2-1-2ZM211.5 148l-2 3 2-3ZM240.5 148l-1 2 1-2ZM301.5 149l1 2-1-2ZM187.5 150l-1 2 1-2ZM272.5 150l1 2-1-2ZM207.5 151l-1 2 1-2ZM304.5 151l2 3-2-3ZM275.5 152l1 2-1-2ZM327.5 152l1 2-1-2ZM255.5 153l-1 2 1-2ZM203.5 154l-1 2 1-2ZM232.5 154l-1 2 1-2ZM257.5 154l1 2-1-2ZM308.5 154l1 2-1-2ZM180.5 155l-2 3 2-3ZM252.5 155l-2 3 2-3ZM279.5 155l1 2-1-2ZM200.5 156l-1 2 1-2ZM261.5 157l1 2-1-2ZM282.5 157l1 2-1-2ZM312.5 157l1 2-1-2ZM334.5 157l1 2-1-2ZM176.5 158l-1 2 1-2ZM196.5 159l-1 2 1-2ZM225.5 159l-1 2 1-2ZM315.5 159l1 2-1-2ZM337.5 159l2 3-2-3ZM172.5 161l-1 2 1-2ZM244.5 161l-1 2 1-2ZM268.5 162l1 2-1-2ZM289.5 162l2 3-2-3ZM341.5 162l1 2-1-2ZM168.5 164l-1 2 1-2ZM189.5 164l-1 2 1-2ZM218.5 164l-1 2 1-2ZM240.5 164l-1 2 1-2ZM272.5 165l1 2-1-2ZM293.5 165l1 2-1-2ZM165.5 166l-1 2 1-2ZM237.5 166l-1 2 1-2ZM214.5 167l-1 2 1-2ZM161.5 169l-1 2 1-2ZM233.5 169l-2 3 2-3ZM181.5 170l-1 2 1-2ZM210.5 170l-1 2 1-2ZM279.5 170l1 2-1-2ZM300.5 170l1 2-1-2ZM330.5 170l1 2-1-2ZM229.5 172l-1 2 1-2ZM206.5 173l-1 2 1-2ZM283.5 173l1 2-1-2ZM304.5 173l1 2-1-2ZM174.5 175l-1 2 1-2ZM203.5 175l-1 2 1-2ZM225.5 175l-1 2 1-2ZM286.5 175l1 2-1-2ZM337.5 175l1 2-1-2ZM150.5 177l-1 2 1-2ZM222.5 177l-1 2 1-2ZM170.5 178l-1 2 1-2ZM199.5 178l-1 2 1-2ZM290.5 178l1 2-1-2ZM311.5 178l1 2-1-2ZM146.5 180l-1 2 1-2ZM167.5 180l-2 3 2-3ZM196.5 180l-2 3 2-3ZM218.5 180l-1 2 1-2ZM293.5 180l2 3-2-3ZM314.5 180l1 2-1-2ZM344.5 180l1 2-1-2ZM143.5 182l-2 3 2-3ZM368.5 182l2 3-2-3ZM163.5 183l-2 3 2-3ZM192.5 183l-1 2 1-2ZM318.5 183l1 2-1-2ZM348.5 183l1 2-1-2ZM139.5 185l-1 2 1-2ZM211.5 185l-1 2 1-2ZM321.5 185l1 2-1-2ZM372.5 185l1 2-1-2ZM159.5 186l-1 2 1-2ZM188.5 186l-1 2 1-2ZM301.5 186l1 2-1-2ZM352.5 186l1 2-1-2ZM135.5 188l-1 2 1-2ZM185.5 188l-2 3 2-3ZM207.5 188l-1 2 1-2ZM325.5 188l1 2-1-2ZM155.5 189l-1 2 1-2ZM132.5 190l-2 3 2-3ZM152.5 191l-1 2 1-2ZM181.5 191l-1 2 1-2ZM203.5 191l-1 2 1-2ZM308.5 191l1 2-1-2ZM329.5 191l1 2-1-2ZM359.5 191l1 2-1-2ZM380.5 191l1 2-1-2ZM200.5 193l-1 2 1-2ZM148.5 194l-2 3 2-3ZM177.5 194l-1 2 1-2ZM312.5 194l1 2-1-2ZM384.5 194l1 2-1-2ZM124.5 196l-1 2 1-2ZM196.5 196l-1 2 1-2ZM336.5 196l1 2-1-2ZM366.5 196l1 2-1-2ZM144.5 197l-1 2 1-2ZM339.5 198l1 2-1-2ZM120.5 199l-1 2 1-2ZM192.5 199l-1 2 1-2ZM140.5 200l-1 2 1-2ZM392.5 200l1 2-1-2ZM117.5 201l-1 2 1-2ZM189.5 201l-2 3 2-3ZM137.5 202l-1 2 1-2ZM166.5 202l-1 2 1-2ZM323.5 202l1 2-1-2ZM395.5 202l1 2-1-2ZM346.5 203l1 2-1-2ZM113.5 204l-1 2 1-2ZM185.5 204l-1 2 1-2ZM377.5 204l1 2-1-2ZM133.5 205l-1 2 1-2ZM399.5 205l2 3-2-3ZM350.5 206l1 2-1-2ZM109.5 207l-1 2 1-2ZM130.5 207l-2 3 2-3ZM159.5 207l-1 2 1-2ZM181.5 207l-1 2 1-2ZM330.5 207l1 2-1-2ZM381.5 207l1 2-1-2ZM403.5 208l2 3-2-3ZM178.5 209l-1 2 1-2ZM105.5 210l-1 2 1-2ZM126.5 210l-2 3 2-3ZM155.5 210l-1 2 1-2ZM357.5 211l1 2-1-2ZM102.5 212l-2 3 2-3ZM152.5 212l-2 3 2-3ZM174.5 212l-1 2 1-2ZM337.5 212l2 3-2-3ZM388.5 212l1 2-1-2ZM361.5 214l1 2-1-2ZM391.5 214l2 3-2-3ZM411.5 214l1 2-1-2ZM98.5 215l-1 2 1-2ZM148.5 215l-2 3 2-3ZM170.5 215l-1 2 1-2ZM341.5 215l1 2-1-2ZM118.5 216l-1 2 1-2ZM395.5 217l1 2-1-2ZM415.5 217l1 2-1-2ZM94.5 218l-1 2 1-2ZM144.5 218l-1 2 1-2ZM166.5 218l-1 2 1-2ZM345.5 218l1 2-1-2ZM368.5 219l1 2-1-2ZM418.5 219l2 3-2-3ZM91.5 220l-1 2 1-2ZM399.5 220l1 2-1-2ZM111.5 221l-1 2 1-2ZM140.5 221l-1 2 1-2ZM371.5 221l1 2-1-2ZM89.5 223l.5 4.5h-1l.5-4.5ZM159.5 223l-1 2 1-2ZM352.5 223l1 2-1-2ZM422.5 223l.5 4.5h-1l.5-4.5ZM405.5 225l-1 2 1-2ZM133.5 226l-1 2 1-2ZM378.5 226l2 3-2-3ZM110.5 228l3 4-3-4ZM152.5 228l-2 3 2-3ZM359.5 228l2 3-2-3ZM401.5 228l-3 4 3-4ZM129.5 229l-1 2 1-2ZM382.5 229l1 2-1-2ZM420.5 230l-1 2 1-2ZM363.5 231l2 3-2-3ZM94.5 232l1 2-1-2ZM115.5 232l2 3-2-3ZM396.5 232l-1 2 1-2ZM417.5 232l-1 2 1-2ZM144.5 234l-1 2 1-2ZM367.5 234l1 2-1-2ZM119.5 235l2.5.5-2.5.5v-1ZM413.5 235l-1 2 1-2ZM140.5 237l-1 2 1-2ZM371.5 237l1 2-1-2ZM410.5 237l-1 2 1-2ZM104.5 239l1 2-1-2ZM137.5 239l-1 2 1-2ZM374.5 239l1 2-1-2ZM407.5 239l-1 2 1-2ZM107.5 241l1 2-1-2ZM404.5 241l-1 2 1-2ZM133.5 242l-1 2 1-2ZM378.5 242l1 2-1-2ZM130.5 244l-2 3 2-3ZM381.5 244l2 3-2-3ZM155.5 274l20.5.5-20.5.5v-1ZM266.5 274l6.5.5-6.5.5v-1ZM297.5 274l17.5.5-17.5.5v-1ZM350.5 274l5.5.5-5.5.5v-1ZM263.5 276l-1 2 1-2ZM359.5 276l1 2-1-2ZM151.5 278l.5 1.5h-1l.5-1.5ZM237.5 278l.5 3.5h-1l.5-3.5ZM151.5 283l.5 30.5h-1l.5-30.5ZM164.5 287l23.5.5-23.5.5v-1ZM200 287l25 .5-24 .5v29h23.5v1h-23l-1.5-1.5V287ZM275.5 287l72.5.5-73 .5v134h72.5v1h-72l-1.5-1.5v-133l1.5-1.5ZM238.5 289l.5 25.5h-1l.5-25.5ZM164.5 317l23.5.5-23.5.5v-1ZM150.5 327l.5 35.5h-1l.5-35.5ZM237.5 328l.5 41.5h-1l.5-41.5ZM200.5 330l.5 30.5h-1l.5-30.5Z"/><path fill="#AFD98B" stroke="#AFD98B" d="M290.5 342q5.25-1.25 6.5 1.5l-1.5-.5q-6 1.25-5-1ZM299.5 348l.5 2.5h-1l.5-2.5ZM287.5 352l3.5 2.5-1.5.5-2-3ZM298.5 352l-2 3-1.5-.5 3.5-2.5ZM107.5 361l2.5.5-2.5.5v-1ZM402.5 361l2.5.5-2.5.5v-1ZM102.5 363l1.5.5-2.5 1.5 1-2ZM99.5 365l-5 6 5-6ZM412.5 365l5 6-5-6ZM151.5 368l.5 1.5h-1l.5-1.5ZM152.5 371l1 2-1-2ZM93.5 372l-1 2 1-2ZM112.5 373l1.5.5-1.5.5v-1ZM156.5 373l6.5.5-6.5.5v-1ZM181.5 373l9.5.5-9.5.5v-1ZM231.5 373l1.5.5-1.5.5v-1ZM398.5 373l1.5.5-1.5.5v-1ZM107.5 375l-3 4 3-4ZM404.5 375l3 4-3-4ZM89.5 381l.5 4.5-2 1 1.5-5.5ZM102.5 381l.5 2.5h-1l.5-2.5ZM409.5 381l.5 2.5h-1l.5-2.5ZM422.5 381l.5 5 2 .5-1.5.5q-2.9-1.4-1-6ZM102.5 387l.5 3.5h-1l.5-3.5ZM409.5 387l.5 3.5h-1l.5-3.5ZM83.5 388l1.5.5-2.5 1.5 1-2ZM428.5 388l1 2-1-2ZM80.5 390l-4 5 4-5ZM431.5 390l5 6-5-6ZM409.5 393l.5 1.5h-1l.5-1.5ZM101.5 396l-1 2 1-2ZM410.5 396l1 2-1-2ZM92.5 398l1.5.5-1.5.5v-1ZM418.5 398l1.5.5-1.5.5v-1ZM88.5 400l-2 3 2-3ZM71.5 404l.5 2.5h-1l.5-2.5ZM440.5 404l.5 2.5h-1l.5-2.5ZM84.5 405l.5 1.5h-1l.5-1.5ZM427.5 405l.5 1.5h-1l.5-1.5ZM83.5 409l.5 2.5h-1l.5-2.5ZM428.5 409l.5 2.5h-1l.5-2.5ZM71.5 414l.5 1.5h-1l.5-1.5ZM84.5 414l1.5 2.5-2-1 .5-1.5ZM427.5 414l.5 1.5h-1l.5-1.5ZM440.5 414l.5 1.5h-1l.5-1.5ZM425.5 418l-1 2 1-2ZM420.5 421l1.5.5-1.5.5v-1ZM92.5 422l21.5.5-21.5.5v-1ZM127.5 422l134.5.5-134.5.5v-1ZM361.5 422l23.5.5-23.5.5v-1ZM398.5 422l20.5.5-20.5.5v-1ZM81.5 430l1 2-1-2ZM89.5 434l1.5.5-1.5.5v-1ZM421.5 434l1.5.5-1.5.5v-1Z"/><path fill="#7EC345" stroke="#7EC345" opacity=".584" d="m57.5 0 2.5.5-2.5.5V0ZM452.5 0l2.5.5-2.5.5V0ZM47.5 2l1.5.5-1.5.5V2ZM463.5 2l1.5.5-1.5.5V2ZM41.5 4l1.5.5-1.5.5V4ZM469.5 4l1.5.5-1.5.5V4ZM33.5 8l-1 2 1-2ZM478.5 8l1 2-1-2ZM28.5 11l-2 3 2-3ZM483.5 11l2 3-2-3ZM24.5 14l-2 3 2-3ZM487.5 14l2 3-2-3ZM16.5 22l-2 3 2-3ZM495.5 22l2 3-2-3ZM13.5 26l-2 3 2-3ZM498.5 26l2 3-2-3ZM9.5 32l-1 2 1-2ZM502.5 32l1 2-1-2ZM4.5 41l.5 1.5H4l.5-1.5ZM507.5 41l.5 1.5h-1l.5-1.5ZM2.5 47l.5 1.5H2l.5-1.5ZM509.5 47l.5 1.5h-1l.5-1.5ZM.5 57l.5 3.5H0L.5 57ZM511.5 57l.5 2.5h-1l.5-2.5ZM.5 451l.5 3.5H0l.5-3.5ZM511.5 452l.5 2.5h-1l.5-2.5ZM2.5 463l.5 1.5H2l.5-1.5ZM509.5 463l.5 1.5h-1l.5-1.5ZM4.5 469l.5 1.5H4l.5-1.5ZM507.5 469l.5 1.5h-1l.5-1.5ZM8.5 478l1 2-1-2ZM503.5 478l-1 2 1-2ZM11.5 483l2 3-2-3ZM500.5 483l-2 3 2-3ZM14.5 487l2 3-2-3ZM497.5 487l-2 3 2-3ZM22.5 495l2 3-2-3ZM489.5 495l-2 3 2-3ZM26.5 498l2 3-2-3ZM485.5 498l-2 3 2-3ZM32.5 502l1 2-1-2ZM479.5 502l-1 2 1-2ZM41.5 507l1.5.5-1.5.5v-1ZM469.5 507l1.5.5-1.5.5v-1ZM47.5 509l1.5.5-1.5.5v-1ZM463.5 509l1.5.5-1.5.5v-1ZM57.5 511l2.5.5-2.5.5v-1ZM452.5 511l2.5.5-2.5.5v-1Z"/></svg>