<svg viewBox="0 0 512 512" xmlns="http://www.w3.org/2000/svg"><path fill="#7EC345" stroke="#7EC345" opacity=".996" d="M61.5 0h389l21 5L493 19l14 21.5 5 21v389l-5 21-14 21.5-21.5 14-21 5h-389l-21-5L19 493 5 471.5l-5-21v-389l5-21L19 19 40.5 5l21-5ZM258 77l-2 1q-5 3-7 10v57l1 1v35l-1 1 2 6 6 5h28v-12h-23V89h161v92h-68l-1 1v11h73l4-2 4-6v-10l1-1-1-88-2-4-6-5H258Zm65 25-8 8 46 46 4-2 4-4v-2l-46-46Zm41 0-3 2q-6 1-5 8l29 27 7-7v-2l-28-28Zm-64 23-8 9 18 16 7-8-17-17Zm15 33-8 3q-8 5-11 15v51h-26l-2 1q-6 2-7 9v27q2 14 10 24 8 12 24 17l1 2v88l-8 3q-12 9-17 24l-2 2h-76l-3-4v-4l-4-13v-5l-3-11q31 3 48-10 14-11 19-30 2-13-2-18l-10-9h-17l-1-1h-79l-3-5-2-16-3-10-2-16-2-5-5-32-2-5q-1-18-6-32-3-5-10-6-16-2-24 2-5 3-6 9l6 37 2 6v5l4 16 1 11 10 49v96l-1 1H76v12h353v-12h-13l-13-20q-4-6-12-9h-2v-90q9-2 16-8 17-12 19-39 2-17-3-26l-5-5h-85v-11h-12v11h-11v-48l1-3 8-6 8 1 5 7v15h12l1-1v-14l-7-14-11-6h-10Zm-123 57-1 1h-26l-2 1-6 7v15h-11v12h11v16q3 7 12 7l-1 6 2 12 7 5q6-2 8 1 14 1 25-2l5-6 1-16 8-3 3-4v-16h12v-12h-12v-15l-1-2q-3-6-11-7h-23Z"/><path fill="#7EC345" stroke="#7EC345" opacity=".996" d="M89 205h16.5l.5 2.5q7.55 31.95 12 67l2 5v6l5 22v6l2 5-1.5 1.5H110v-5.5l-4-15-2-16-5-21v-5l-5-22v-5l-2-5v-5l-2-5-1-10.5ZM169 228h46v34h-46v-34ZM273 239h137.5l.5.5v25q-3.75 13.25-12.5 21.5-9.24 8.76-25 11h-62q-21.09-3.41-31.5-17.5-5.29-5.71-7-15V239ZM181 274h22v11h-22v-11ZM308 309h69v86h-69v-86ZM111 332h124.5l1.5 1.5 1 8-1.5 1.5H111v-11ZM111 355l122 .5-8.5 10.5q-6.83 5.67-17 8h-14l-1 1h-10l-1 1-29 1-1.5 1.5V389h14.5l5.5-1 7 30.5v5.5h-67v-69ZM308.5 406l79 1 7.5 6.5 5 10.5H284.5l-.5-1.5 9.5-13.5 4-2h10l1-1Z"/><path fill="#BBDF9D" stroke="#BBDF9D" d="m257.5 77 169.5.5-169.5.5v-1ZM255.5 78l-1 2 1-2ZM430.5 79l2 3-2-3ZM434.5 85l.5 44.5h-1l.5-44.5ZM249.5 87l.5 8.5h-1l.5-8.5ZM261.5 89l.5 91.5h-1l.5-91.5ZM322.5 102l-3 4 3-4ZM365.5 103l26 27-26-27ZM360.5 104l-3.5 4.5-.5 1.5-.5-1.5 4.5-4.5ZM315.5 109l.5 1.5h-1l.5-1.5ZM356.5 111l28 27 1.5-.5-2.5 1.5-27-28ZM299.5 125l1.5.5-6.5 5.5 5-6ZM249.5 127l.5 17.5h-1l.5-17.5ZM292.5 132l.5 1.5h-1l.5-1.5ZM301.5 142l7 8-7-8ZM316.5 142l-1 2 1-2ZM435.5 144l.5 29.5h-1l.5-29.5ZM368.5 147l.5 2.5-5 4q4.08-1.42 4.5-6.5ZM314.5 158l1.5.5-1.5.5v-1ZM322.5 158l2.5.5-2.5.5v-1ZM306.5 161l-1 2 1-2ZM331.5 161l1 2-1-2ZM300.5 167l-1 2 1-2ZM337.5 167l1 2-1-2ZM312.5 171l1.5.5-3.5 2.5 2-3ZM325.5 171l3 4-3-4ZM308.5 176l.5 1.5h-1l.5-1.5ZM342.5 177l.5 14.5h-1l.5-14.5ZM330.5 178l.5 14.5h-1l.5-14.5ZM249.5 181l.5 2.5h-1l.5-2.5ZM284.5 181l.5 11.5h-1l.5-11.5ZM434.5 181l.5 3.5h-1l.5-3.5ZM432.5 188l-2 3 2-3ZM255.5 191l1 2-1-2ZM87.5 192l18.5.5-18.5.5v-1ZM109.5 193l1.5.5-1.5.5v-1ZM81.5 194l-3 4 3-4ZM112.5 194l3 4-3-4ZM116.5 199l.5 1.5h-1l.5-1.5ZM76.5 202l.5 4.5h-1l.5-4.5ZM88 204l18 .5-17 .5-.5 2-.5-3ZM106.5 206l.5 1.5h-1l.5-1.5ZM118.5 208l.5 3.5h-1l.5-3.5ZM89.5 209l.5 2.5h-1l.5-2.5ZM77.5 210l.5 2.5h-1l.5-2.5ZM107.5 211l.5 2.5h-1l.5-2.5ZM119.5 214l.5 1.5h-1l.5-1.5ZM191.5 215l8.5.5-8.5.5v-1ZM209.5 215l5.5.5-5.5.5v-1ZM78.5 216l.5 1.5h-1l.5-1.5ZM108.5 217l.5 1.5h-1l.5-1.5ZM162.5 217l-4 5 4-5ZM221.5 217l2 3-2-3ZM91.5 220l.5 2.5h-1l.5-2.5ZM120.5 220l.5 1.5h-1l.5-1.5ZM79.5 221l.5 1.5h-1l.5-1.5ZM109.5 222l.5 2.5h-1l.5-2.5ZM157.5 223l.5 15.5h-1l.5-15.5ZM226.5 223l.5 15.5h-1l.5-15.5ZM121.5 224l.5 2.5h-1l.5-2.5ZM80.5 226l.5 2.5h-1l.5-2.5ZM92.5 226l.5 1.5h-1l.5-1.5ZM169.5 227l45.5.5-45.5.5v-1ZM269.5 227l25.5.5-25.5.5v-1ZM308.5 227l9.5.5-9.5.5v-1ZM331.5 227l84.5.5-84.5.5v-1ZM110.5 228l.5 1.5h-1l.5-1.5ZM417.5 228l3 4-3-4ZM93.5 230l.5 2.5h-1l.5-2.5ZM122.5 230l.5 1.5h-1l.5-1.5ZM81.5 232l.5 1.5h-1l.5-1.5ZM263.5 232l-1 2 1-2ZM111.5 234l.5 1.5h-1l.5-1.5ZM123.5 234l.5 3.5h-1l.5-3.5ZM422.5 234l.5 1.5h-1l.5-1.5ZM82.5 236l.5 3.5h-1l.5-3.5ZM94.5 236l.5 1.5h-1l.5-1.5ZM261.5 236l.5 1.5h-1l.5-1.5ZM112.5 239l.5 1.5h-1l.5-1.5ZM238.5 239l.5 11.5h-1l.5-11.5ZM411.5 239l.5 23.5h-1l.5-23.5ZM423.5 239l.5 18.5h-1l.5-18.5ZM124.5 240l.5 1.5h-1l.5-1.5ZM95.5 241l.5 2.5h-1l.5-2.5ZM83.5 243l.5 1.5h-1l.5-1.5ZM113.5 245l.5 1.5h-1l.5-1.5ZM125.5 245l.5 2.5h-1l.5-2.5ZM96.5 246l.5 2.5h-1l.5-2.5ZM84.5 248l.5 2.5h-1l.5-2.5ZM114.5 249l.5 3.5h-1l.5-3.5ZM126.5 251l.5 1.5h-1l.5-1.5ZM157.5 251l.5 15.5 1 1-2-1 .5-15.5ZM226.5 251l.5 15.5h-1l.5-15.5ZM97.5 252l.5 1.5h-1l.5-1.5ZM85.5 253l.5 1.5h-1l.5-1.5ZM115.5 256l.5 1.5h-1l.5-1.5ZM127.5 256l.5 2.5h-1l.5-2.5ZM98.5 257l.5 2.5h-1l.5-2.5ZM86.5 258l.5 2.5h-1l.5-2.5ZM116.5 260l.5 3.5h-1l.5-3.5ZM128.5 261l.5 1.5h-1l.5-1.5ZM261.5 261l.5 2.5h-1l.5-2.5ZM99.5 263l.5 1.5h-1l.5-1.5ZM87.5 264l.5 1.5h-1l.5-1.5ZM422.5 264l.5 2.5h-1l.5-2.5ZM273.5 265l.5 1.5h-1l.5-1.5ZM100.5 267l.5 2.5h-1l.5-2.5ZM117.5 267l.5 1.5h-1l.5-1.5ZM129.5 267l.5 1.5h-1l.5-1.5ZM262.5 267l.5 1.5h-1l.5-1.5ZM274.5 268l.5 1.5h-1l.5-1.5ZM224.5 269l-1 2 1-2ZM88.5 270l.5 1.5h-1l.5-1.5ZM130.5 271l.5 2.5h-1l.5-2.5ZM118.5 272l.5 2.5h-1l.5-2.5ZM420.5 272l.5 1.5h-1l.5-1.5ZM101.5 273l.5 1.5h-1l.5-1.5ZM165.5 273l1.5.5-1.5.5v-1ZM217.5 273l1.5.5-1.5.5v-1ZM276.5 273l.5 1.5h-1l.5-1.5ZM180.5 274l.5 10.5h-1l.5-10.5ZM203.5 274l.5 10.5h-1l.5-10.5ZM215.5 274l.5 10.5h-1l.5-10.5ZM89.5 275l.5 2.5h-1l.5-2.5ZM265.5 276l.5 1.5h-1l.5-1.5ZM119.5 277l.5 1.5h-1l.5-1.5ZM131.5 277l.5 1.5h-1l.5-1.5ZM278.5 277l1 2-1-2ZM405.5 277l-1 2 1-2ZM418.5 277l.5 1.5h-1l.5-1.5ZM102.5 278l.5 2.5h-1l.5-2.5ZM168.5 279l.5 2.5h-1l.5-2.5ZM403.5 280l-3 4 3-4ZM90.5 281l.5 1.5h-1l.5-1.5ZM281.5 281l2 3-2-3ZM132.5 282l.5 2.5h-1l.5-2.5ZM103.5 283l.5 1.5h-1l.5-1.5ZM120.5 283l.5 2.5h-1l.5-2.5ZM91.5 285l.5 2.5h-1l.5-2.5ZM397.5 286l-2 3 2-3ZM169.5 287l.5 2.5h-1l.5-2.5ZM271.5 287l3 4-3-4ZM288.5 287l1 2-1-2ZM121.5 288l.5 3.5h-1l.5-3.5ZM214.5 288l.5 1.5h-1l.5-1.5ZM104.5 289l.5 1.5h-1l.5-1.5ZM410.5 290l-6 7 6-7ZM170.5 291l1 2-1-2ZM134.5 292l.5 3.5h-1l.5-3.5ZM105.5 294l.5 2.5h-1l.5-2.5ZM210.5 294l-1 2 1-2ZM383.5 294l1.5.5-1.5.5v-1ZM279.5 295l2 3-2-3ZM93.5 296l.5 2.5h-1l.5-2.5ZM176.5 296l1.5.5-1.5.5v-1ZM205.5 296l1.5.5-1.5.5v-1ZM308.5 296l2.5.5-2.5.5v-1ZM374.5 296l1.5.5-1.5.5v-1ZM135.5 297l.5 2.5h-1l.5-2.5ZM184.5 297l12.5.5-12.5.5v-1ZM321.5 297l43.5.5-43.5.5v-1ZM401.5 298l-1 2 1-2ZM123.5 299l.5 2.5h-1l.5-2.5ZM284.5 299l1 2-1-2ZM398.5 300l-1 2 1-2ZM290.5 303l1.5.5-1.5.5v-1ZM392.5 303l1.5.5-1.5.5v-1ZM107.5 304l.5 2.5h-1l.5-2.5ZM388.5 306l.5 89 2 .5-1.5.5-1.5-1.5.5-88.5ZM95.5 307l.5 2.5h-1l.5-2.5ZM137.5 308l.5 2.5h-1l.5-2.5ZM308.5 308l68.5.5-68.5.5v-1ZM125.5 311l.5 2.5h-1l.5-2.5ZM96.5 312l.5 2.5h-1l.5-2.5ZM109.5 314l.5 3.5h-1l.5-3.5ZM138.5 314l.5 1.5h-1l.5-1.5ZM126.5 316l.5 1.5h-1l.5-1.5ZM97.5 318l.5 1.5h-1l.5-1.5ZM139.5 318l1 1 79.5.5-79.5.5-1-2ZM236.5 320l1.5.5-1.5.5v-1ZM98.5 323l.5 2.5h-1l.5-2.5ZM111.5 331l123.5.5-124 .5-.5 11-.5-10.5 1.5-1.5ZM249.5 332l.5 2.5h-1l.5-2.5ZM237.5 334l.5 1.5h-1l.5-1.5ZM249.5 344l.5 2.5h-1l.5-2.5ZM111.5 354h121l1.5 1.5-2 1 .5-1.5H111v68.5h-1v-68l1.5-1.5ZM246.5 354l.5 1.5h-1l.5-1.5ZM231.5 358l-1 2 1-2ZM228.5 362l-2 3 2-3ZM223.5 366l-1 2 1-2ZM238.5 368l-1 2 1-2ZM216.5 370l1.5.5-1.5.5v-1ZM211.5 372l1.5.5-1.5.5v-1Z"/><path fill="#BBDF9D" stroke="#BBDF9D" d="m193.5 374 10.5.5-10.5.5v-1ZM232.5 374l-2 3 2-3ZM182.5 375l3.5.5-3.5.5v-1ZM166.5 376l3.5.5-3.5.5v-1ZM152.5 377l5.5.5-6 .5-.5 11-.5-10.5 1.5-1.5ZM228.5 377l-1 2 1-2ZM221.5 381l1.5.5-1.5.5v-1ZM212.5 384l1.5.5-1.5.5v-1ZM207.5 385l1.5.5-1.5.5v-1ZM194.5 386l8.5.5-8.5.5v-1ZM159.5 388l6.5.5-6.5.5v-1ZM171.5 389l.5 1.5h-1l.5-1.5ZM183.5 389l.5 1.5h-1l.5-1.5ZM184.5 394l.5 1.5h-1l.5-1.5ZM294.5 395l1.5.5-1.5.5v-1ZM185.5 397l.5 2.5h-1l.5-2.5ZM173.5 398l.5 2.5h-1l.5-2.5ZM398.5 399l4 5-4-5ZM174.5 402l.5 1.5h-1l.5-1.5ZM281.5 404l-1 2 1-2ZM299.5 406l8.5.5-8.5.5v-1ZM335.5 406l20.5.5-20.5.5v-1ZM383.5 406l2.5.5-2.5.5v-1ZM404.5 406l1 2-1-2ZM175.5 407l.5 1.5h-1l.5-1.5ZM187.5 407l.5 1.5h-1l.5-1.5ZM279.5 407l-1 2 1-2ZM390.5 408l4 5-4-5ZM277.5 410l-.5 1.5-1.5 2.5.5-1.5 1.5-2.5ZM188.5 411l.5 1.5h-1l.5-1.5ZM176.5 412l.5 1.5h-1l.5-1.5ZM395.5 414l1 2-1-2ZM189.5 415l.5 2.5h-1l.5-2.5ZM272.5 419l-1 2 1-2ZM190.5 420l.5 1.5h-1l.5-1.5ZM178.5 421l.5 2.5h-1l.5-2.5ZM399.5 421l1.5 2.5h-1l-.5-2.5ZM270.5 422l-1 2 1-2ZM76.5 424l.5 11 352 .5-353 .5.5-12Z"/><path fill="#FCFEFC" stroke="#FCFEFC" d="M256.5 78h171l5.5 4.5 1 2v45l1 1v50q-.53 7.47-5.5 10.5l-4 2H354v-11.5l.5-.5H423V89H261v92h23v12h-26.5l-5.5-4.5-2-3-1-89 1-1v-10l3.5-5.5 3-2Z"/><path fill="#FCFEFC" stroke="#FCFEFC" d="M322.5 103h2l43.5 43.5v3l-5.5 5.5-2 1-44.5-44.5v-3l6.5-5.5ZM362.5 103h2l27.5 27.5-5.5 6.5-3 1-27.5-27.5 1-1 5.5-6.5ZM299.5 126h2l15.5 15.5-7.5 8.5-11.5-10.5q.75-2.25-1.5-1.5-4.5-1.44-3.5-7l6.5-5ZM316.5 158q14.97-.47 20.5 8.5l5 9V193h-11v-14.5l-5.5-7.5-10-1-5.5 3.5-2 3V228h9.5l1.5-1.5V216h10.5l1.5 1.5V228h85.5l5.5 5.5 1 3v27q-4.26 23.24-20.5 34.5l-14.5 8.5v88l1.5 1.5q10.58 1.42 14.5 9.5l10 18.5h15v11H77.5l-.5-.5V424h21.5l.5-.5v-100l-5-22v-5l-2-5v-6l-2-5q-1.7-20.8-7-38v-6l-5-21-1-15 5.5-6.5 2-1h24l7.5 5.5 7 34v5l2 5 2 16 5 21v5l2 5v6q4.02 7.98 4 20l2.5 4.5h95q7.65 1.85 11.5 7.5 4.09 5.41 3 16-4.1 19.4-16.5 30.5-7.05 6.95-18 10l-9 2-23.5 1 8 37h78.5l1.5-1.5q5.85-13.65 15.5-23.5 3.4-3.67 9.5-3v-90.5l-1.5-.5q-11.66-4.84-19.5-13.5-17.21-16.29-14-53 .87-6.63 5.5-9.5l2-1h26l1.5-1.5v-50q2.51-8.49 8.5-13.5 4.33-4.17 12-5ZM88 204l22 115 1 1h16l-3-14v-6l-2-5-2-17-3-11v-6l-2-5v-6l-4-16-3-22-2-6v-2H88Zm185 35v28q2 9 8 15 7 7 18 12l10 3h12l1 1q29 2 54-1 12-2 20-8 12-9 16-26v-24H273Zm35 69v87h69v-87h-69Zm-196 23-2 2v10h128l1-3-1-5-3-4H112Zm0 23-2 2v68h69l-7-34-1-2h-11l-1 1h-7v-11q23-3 52-3 14-2 23-10l7-9-1-2H112Zm188 52-5 2q-8 6-12 16h118l-6-11q-3-5-9-7l-3 1-83-1Z"/><path fill="#FCFEFC" stroke="#FCFEFC" d="m200.5 215 18 1 6.5 4 1 2.5V239h12v12h-12v16.5q-3.5 5.75-11 6.5 2.45 13.77-3.5 20l-7 3h-26l-6.5-3.5q-4.95-6.74-3-19.5-6.78-.53-10-5.5l-1-2V251h-12v-12h12v-16.5l7.5-6.5h34l1-1ZM169 227v35h46v-35h-46Zm11 47v11h24v-11h-24Z"/><path fill="#7CC342" stroke="#7CC342" opacity=".141" d="m53.5 0 3.5.5-3.5.5V0ZM455.5 0l3.5.5-3.5.5V0ZM32.5 8l-1 2 1-2ZM479.5 8l1 2-1-2ZM20.5 17l-3 4 3-4ZM491.5 17l3 4-3-4ZM9.5 31l-1 2 1-2ZM502.5 31l1 2-1-2ZM.5 53l.5 3.5H0L.5 53ZM511.5 53l.5 3.5h-1l.5-3.5ZM.5 455l.5 3.5H0l.5-3.5ZM511.5 455l.5 3.5h-1l.5-3.5ZM8.5 479l1 2-1-2ZM503.5 479l-1 2 1-2ZM17.5 491l3 4-3-4ZM494.5 491l-3 4 3-4ZM31.5 502l1 2-1-2ZM480.5 502l-1 2 1-2ZM53.5 511l3.5.5-3.5.5v-1ZM455.5 511l3.5.5-3.5.5v-1Z"/><path fill="#7EC344" stroke="#7EC344" opacity=".816" d="m21.5 17-1 2 1-2ZM490.5 17l1 2-1-2ZM18.5 20l-1 2 1-2ZM493.5 20l1 2-1-2ZM17.5 490l1 2-1-2ZM494.5 490l-1 2 1-2ZM20.5 493l1 2-1-2ZM491.5 493l-1 2 1-2Z"/><path fill="#7EC345" stroke="#7EC345" opacity=".6" d="m57.5 0 1.5.5-1.5.5V0ZM453.5 0l1.5.5-1.5.5V0ZM23.5 15l-1 2 1-2ZM488.5 15l1 2-1-2ZM16.5 22l-1 2 1-2ZM495.5 22l1 2-1-2ZM.5 57l.5 1.5H0L.5 57ZM511.5 57l.5 1.5h-1l.5-1.5ZM.5 453l.5 1.5H0l.5-1.5ZM511.5 453l.5 1.5h-1l.5-1.5ZM15.5 488l1 2-1-2ZM496.5 488l-1 2 1-2ZM22.5 495l1 2-1-2ZM489.5 495l-1 2 1-2ZM57.5 511l1.5.5-1.5.5v-1ZM453.5 511l1.5.5-1.5.5v-1Z"/></svg>