<svg viewBox="0 0 512 512" xmlns="http://www.w3.org/2000/svg"><path fill="#FDFEFC" stroke="#FDFEFC" d="M107.5 66h56l3.5 3.5 1 2V129l9.5 1 10 10h1.5l1.5 3q2.25-.75 1.5 1.5l4 2.5 9 11.5 1 18q-2.25 1.25-1 6l-2.5 2.5h-31l-1 1h-101l-3.5-3.5v-24l1-2.5 9-7.5q-.75-2.25 1.5-1.5l4-5 5-4 7-8 10.5-1V69.5l3.5-3.5Zm8.5 12v51h38V78h-38Zm-14 63-2 1-21 21-1 10 2 1h112q3-2 1-10l-23-23h-68ZM231 66h11.5l.5.5v120q9.05 2.45 14 9l5 9 1 12q-.45 5.55-4.5 7.5h-42l-4.5-3.5-1-9q1.34-13.16 9.5-19.5l10.5-6.5V66Zm3 133-4 2q-5 3-6 9l1 1h25l-2-6q-3-8-14-6Z"/><path fill="#FDFEFC" stroke="#FDFEFC" d="M275 66h12.5l.5.5v69q8.85 3.15 14 10 6.57 6.93 5 22l-3.5 5.5h-44l-2.5-2.5q-2.25-4.75-1-13 2.51-10.49 9.5-16.5 3.51-5.58 10.5-5V79.5l-1-1V66Zm4 82-4 2-6 7q-1 4 1 4h24l-1-6q-3-8-14-7Z"/><path fill="#FDFEFC" stroke="#FDFEFC" d="M323.5 142h119l2.5 1 1 2.5v297l-3.5 3.5h-373l-3.5-3.5v-144l3.5-4.5H91v-20.5l3.5-4.5H116v12h-12v13h25v-25h12v25h27v-11.5l-1.5-1.5H154v-12h22.5l2.5 2.5 1 2V294h139V147.5l4.5-5.5Zm10.5 12-2 2v75h102v-75l-1-2h-99Zm-2 89v191h102V243H332ZM80 306l-2 2v24h115v-24l-1-2H80Zm127 0-2 2v24h114v-26H207ZM80 344l-2 2v88h115v-88l-1-2H80Zm127 0-2 2v88h51v-90h-49Zm64 0-2 2v88h50v-90h-48Z"/><path fill="#FDFEFC" stroke="#FDFEFC" d="M345 180h13v25h-13v-25ZM345 269h13v25h-13v-25ZM95.5 313q6.16-.66 7.5 3.5l1 5q-.75 5.25-7.5 4.5l-5.5-4.5q-.83-5.83 2.5-7.5l2-1ZM121.5 313q5.12-.63 6.5 2.5l1 6-2.5 3.5-6 1q-5-1.5-3.5-9.5l4.5-3.5ZM147.5 313q4.75.25 6.5 3.5 1.5 8-3.5 9.5-5.83.67-7.5-2l-1-6.5 2.5-3.5 3-1ZM172.5 313l5.5 1 2 7.5q-1 5.5-8.5 4.5-5-1.5-3.5-9.5l4.5-3.5ZM250 313h25v13h-25v-13ZM94.5 358h81l3.5 2.5 2 11v35l-1 1v9l-2.5 3.5q-14.65 3.85-35 2l-1-1h-46l-3.5-2.5-1-2v-54l3.5-4.5Zm9.5 12v39h62l1-1h1v-36l-1-2h-63ZM231 377h12v25h-12v-25ZM282 377h12v25h-12v-25Z"/><path fill="#7EC345" stroke="#7EC345" opacity=".996" d="M61.5 0h389q26 3.2 40.5 17v2h2v2q2.67-1.12 2 1.5 14.32 13.68 17 39v389q-3.2 26-17 40.5h-2v2h-2q1.12 2.67-1.5 2-13.68 14.32-39 17h-389q-26-3.2-40.5-17v-2h-2v-2q-2.67 1.12-2-1.5-14.32-13.68-17-39v-389q3.2-26 17-40.5h2v-2h2q-1.12-2.67 1.5-2 13.68-14.32 39-17ZM109 65l-2 1-4 5v57l-8 1-30 30v23l4 4h133l2-1 2-4v-21l-3-5-23-24q-4-4-12-3V71l-1-2-3-4h-55Zm121 0v122l-8 4q-9 6-11 18-1 8 1 13l8 3 40-1 3-4q2-15-4-22-5-8-13-11h-2V65h-14Zm45 0v71l-7 3q-11 7-13 22l2 11 5 2h41l2-1 2-3q3-19-6-26l-12-8V65h-14Zm50 76-6 5v148H181v-19l-3-6-2-1h-22v14h13v12h-25v-24l-1-2h-12v25l-1 1h-24v-12h12l1-1v-13H96l-5 5v21H70l-5 5v143l1 2 5 3 373-1 3-4V146l-5-5H325Z"/><path fill="#7EC345" stroke="#7EC345" opacity=".996" d="M117 78h35.5l1.5 1.5V128h-37V78ZM100.5 142h70l20.5 19.5 2 11.5H79.5l-.5-.5v-9l21.5-21.5ZM276.5 149q12.25-2.25 15.5 4.5l2 6.5-25-.5q.71-5.79 4.5-8.5l3-2ZM333.5 154h99l1.5 1.5V230H332v-74.5l1.5-1.5Zm10.5 26v24l1 1 1 1h11l2-2v-22l-1-2h-14ZM234.5 199q8.37-.75 11.5 3l3 9h-23.5l-.5-3.5 6.5-7.5 3-1ZM332 244h102v190H332V244Zm14 24-2 2v24h15v-24l-1-2h-12ZM79 307h112.5l1.5 1.5v22l-.5.5H79v-24Zm16 6q-5 2-4 10l5 3q7 1 8-3l-1-7q-2-4-8-3Zm25 0-4 5 1 6 4 2q5 1 7-1t1-8q-1-5-9-4Zm26 0-4 4q-1 8 4 9l7-1 2-4-1-5q-2-4-8-3Zm25 0-4 5 1 6 4 2q7 1 8-3l-1-7q-1-4-8-3ZM206 307h112.5l.5.5V331H206.5l-.5-.5V307Zm43 6v12l2 1h25v-13h-27ZM79 345h112.5l1.5 1.5v86l-1.5 1.5H79v-89Zm15 13-3 3q1 4-1 6l1 51 7 4 2-1h29l1 1h43l4-1 4-6v-50l-1-3-3-4H94ZM206 345h50v89h-50v-89Zm24 31v26h14v-26h-14ZM270.5 345H319v89h-48.5l-1.5-1.5v-86l1.5-1.5Zm10.5 31v26h14v-24l-1-2h-13Z"/><path fill="#7EC345" stroke="#7EC345" opacity=".996" d="M104 371h63v37h-63v-37Z"/><path fill="#82C243" stroke="#82C243" opacity=".118" d="m53.5 0 1.5.5-1.5.5V0ZM457.5 0l1.5.5-1.5.5V0ZM20.5 17l-3 4 3-4ZM491.5 17l3 4-3-4ZM.5 53l.5 1.5H0L.5 53ZM511.5 53l.5 1.5h-1l.5-1.5ZM.5 457l.5 1.5H0l.5-1.5ZM511.5 457l.5 1.5h-1l.5-1.5ZM17.5 491l3 4-3-4ZM494.5 491l-3 4 3-4ZM53.5 511l1.5.5-1.5.5v-1ZM457.5 511l1.5.5-1.5.5v-1Z"/><path fill="#B8DD98" stroke="#B8DD98" d="M108.5 65h55l3.5 3.5-3.5-2.5h-55v-1ZM230 65h13.5l.5.5v121l1.5.5v1l-2.5-1.5v-120l-.5-.5H231l-.5 120-.5-121ZM275.5 65h13l.5.5v70l.5 1.5-1.5-1.5V66h-12.5v-1ZM106.5 66l-2 3 2-3ZM103.5 70l.5 59-7-.5 6-.5.5-58ZM116.5 78l.5 50 37 .5-38 .5.5-51ZM275.5 79l.5 56.5h-1l.5-56.5ZM168.5 128l5.5.5-5.5.5v-1ZM179.5 131l8 9-8-9ZM87.5 136l-1 2 1-2ZM267.5 139l-1 2 1-2ZM101.5 141l68.5.5-68.5.5v-1ZM189.5 141l1 2-1-2ZM298.5 141l2 3-2-3ZM324.5 141l117.5.5-117.5.5v-1ZM99.5 142l-20 21 20-21ZM172.5 143l16 17-16-17ZM321.5 143l-1.5 2.5-.5 1.5-.5-1.5 2.5-2.5ZM79.5 144l-2 3 2-3ZM192.5 144l2 3-2-3ZM445.5 144l1.5 1.5v296h-1v-296l-.5-1.5ZM261.5 145l-1 2 1-2ZM302.5 146l1 2-1-2ZM75.5 148l-7 8 7-8ZM196.5 148l6 7-6-7ZM278.5 148l6.5.5-6.5.5v-1ZM287.5 149l1 2-1-2ZM306.5 154l.5 2.5h-1l.5-2.5ZM256.5 155l.5 1.5h-1l.5-1.5ZM269.5 156l.5 2.5h-1l.5-2.5ZM66.5 157l-.5 1.5-.5 23.5-.5-23.5 1.5-1.5ZM205.5 159l.5 3.5h-1l.5-3.5ZM255.5 160l.5 4.5h-1l.5-4.5ZM269.5 160l24.5.5-24.5.5v-1ZM191.5 162q3 1.5 1.5 7.5h-1q.5-6-.5-7.5ZM78.5 167l.5 6 113 .5-112.5.5q-3.13-1.63-1-7ZM256.5 168l.5 1.5h-1l.5-1.5ZM306.5 168l.5 1.5h-1l.5-1.5ZM305.5 171l-1 2 1-2ZM261.5 173l41.5.5-41.5.5v-1ZM205.5 177l.5 3.5h-1l.5-3.5ZM344.5 180l.5 23.5h-1l.5-23.5ZM358.5 181l.5 22.5h-1l.5-22.5ZM66.5 183l2 3-2-3ZM171.5 185l30.5.5-30.5.5v-1ZM217.5 195l-1 2 1-2ZM257.5 196l1 2-1-2ZM240.5 199l1.5.5-1.5.5v-1ZM259.5 199l1.5 2.5h-1l-.5-2.5ZM243.5 200l1 2-1-2ZM229.5 201l-3 4 3-4ZM246.5 203l1 2-1-2ZM212.5 204l.5 1.5h-1l.5-1.5ZM345.5 205l11.5.5-11.5.5v-1ZM248.5 206l.5 1.5h-1l.5-1.5ZM262.5 207l.5 3.5h-1l.5-3.5ZM211.5 208l.5 2.5h-1l.5-2.5ZM224.5 209l.5 1.5h-1l.5-1.5ZM249.5 209l.5 1.5h-1l.5-1.5ZM262.5 217l.5 2.5h-1l.5-2.5ZM212.5 221l1 2-1-2ZM261.5 221l-2 3 2-3ZM219.5 224l16.5.5-16.5.5v-1ZM332.5 230l101.5.5-101.5.5v-1ZM332.5 243l101.5.5-101.5.5v-1ZM95.5 268H117v12.5l-1.5 1.5h-11v-1H116v-12H95.5v-1ZM129.5 268h11l1.5 1.5-.5 24.5-.5-25h-11.5v-1ZM154.5 268l21.5.5-21.5.5v-1ZM345.5 268h12l1.5 1.5-.5 24.5-.5-25h-13v24.5h-1v-24l1.5-1.5ZM180.5 274l.5 19.5h-1l.5-19.5ZM154.5 281h12l1.5 1.5-.5 11.5-.5-12h-12.5v-1ZM66.5 297l-.5 1.5-.5 143.5-.5-143.5 1.5-1.5ZM79.5 306h112l1.5 1.5-1.5-.5h-112l-.5.5V331l114 .5-115 .5v-24.5l1.5-1.5ZM206.5 306l112.5.5-113 .5v23.5l.5.5h112v1h-113l-.5-.5v-24l1.5-1.5Z"/><path fill="#B8DD98" stroke="#B8DD98" d="m119.5 313 1.5.5-3.5 2.5 2-3ZM145.5 313l1.5.5-1.5.5v-1ZM170.5 313l1.5.5-3.5 2.5 2-3ZM175.5 313l1.5.5-1.5.5v-1ZM249.5 313l.5 11.5h-1l.5-11.5ZM275.5 313l.5 12.5h-1l.5-12.5ZM101.5 314l1 2-1-2ZM152.5 314l1 2-1-2ZM116.5 317l.5 4.5h-1l.5-4.5ZM167.5 317l.5 4.5h-1l.5-4.5ZM154.5 318l.5 2.5h-1l.5-2.5ZM91.5 322l2 3-2-3ZM103.5 322l-3 4 3-4ZM179.5 322l-3 4 3-4ZM117.5 323l1 2-1-2ZM153.5 323l-1 2 1-2ZM168.5 323l1 2-1-2ZM144.5 324l1 2-1-2ZM79.5 344h112l1.5 1.5-1.5-.5H79v88.5h-1v-88l1.5-1.5ZM206.5 344l49.5.5-50 .5-.5 89-.5-88.5 1.5-1.5ZM270.5 344l48.5.5-48.5.5-1 1 1-2Z"/><path fill="#B8DD98" stroke="#B8DD98" d="m93.5 358-1.5 2.5-.5 1.5-.5-1.5 2.5-2.5ZM180.5 364l.5 6.5h-1l.5-6.5ZM90.5 366l.5 24.5h-1l.5-24.5ZM104.5 370h62l1.5 1.5-.5 36.5-.5-37h-62.5v-1ZM230 376h14v25.5h-1V377h-12l-.5 25-.5-26ZM281 376h12.5l1.5 1.5-.5 24.5-.5-25h-12v24.5h-1V376ZM180.5 407l.5 7.5h-1l.5-7.5ZM104.5 408l61.5.5-61.5.5v-1ZM97.5 421l1.5.5-1.5.5v-1ZM129.5 421l12.5.5-12.5.5v-1ZM167.5 421l5.5.5-5.5.5v-1ZM66.5 443l2 3-2-3ZM444.5 444l-1 2 1-2ZM70.5 446l165.5.5-165.5.5v-1Z"/><path fill="#7DC344" stroke="#7DC344" opacity=".502" d="m57.5 0 1.5.5-1.5.5V0ZM453.5 0l1.5.5-1.5.5V0ZM.5 57l.5 1.5H0L.5 57ZM511.5 57l.5 1.5h-1l.5-1.5ZM.5 453l.5 1.5H0l.5-1.5ZM511.5 453l.5 1.5h-1l.5-1.5ZM57.5 511l1.5.5-1.5.5v-1ZM453.5 511l1.5.5-1.5.5v-1Z"/><path fill="#7DC344" stroke="#7DC344" opacity=".314" d="m55.5 0 1.5.5-1.5.5V0ZM455.5 0l1.5.5-1.5.5V0ZM25.5 13l-1 2 1-2ZM486.5 13l1 2-1-2ZM14.5 24l-1 2 1-2ZM497.5 24l1 2-1-2ZM.5 55l.5 1.5H0L.5 55ZM511.5 55l.5 1.5h-1l.5-1.5ZM.5 455l.5 1.5H0l.5-1.5ZM511.5 455l.5 1.5h-1l.5-1.5ZM13.5 486l1 2-1-2ZM498.5 486l-1 2 1-2ZM24.5 497l1 2-1-2ZM487.5 497l-1 2 1-2ZM55.5 511l1.5.5-1.5.5v-1ZM455.5 511l1.5.5-1.5.5v-1Z"/><path fill="#7EC345" stroke="#7EC345" opacity=".659" d="m59.5 0 1.5.5-1.5.5V0ZM451.5 0l1.5.5-1.5.5V0ZM51.5 1l1.5.5-1.5.5V1ZM459.5 1l1.5.5-1.5.5V1ZM23.5 15l-1 2 1-2ZM488.5 15l1 2-1-2ZM16.5 22l-1 2 1-2ZM495.5 22l1 2-1-2ZM1.5 51l.5 1.5H1l.5-1.5ZM510.5 51l.5 1.5h-1l.5-1.5ZM.5 59l.5 1.5H0L.5 59ZM511.5 59l.5 1.5h-1l.5-1.5ZM.5 451l.5 1.5H0l.5-1.5ZM511.5 451l.5 1.5h-1l.5-1.5ZM1.5 459l.5 1.5H1l.5-1.5ZM510.5 459l.5 1.5h-1l.5-1.5ZM15.5 488l1 2-1-2ZM496.5 488l-1 2 1-2ZM22.5 495l1 2-1-2ZM489.5 495l-1 2 1-2ZM51.5 510l1.5.5-1.5.5v-1ZM459.5 510l1.5.5-1.5.5v-1ZM59.5 511l1.5.5-1.5.5v-1ZM451.5 511l1.5.5-1.5.5v-1Z"/></svg>