<svg xmlns="http://www.w3.org/2000/svg" viewBox="0 0 512 512"><path fill="#7EC345" stroke="#7EC345" opacity=".996" d="M60.5 0h391q28.66 3.84 43.5 21.5 13.74 14.26 17 39v391q-3.84 28.66-21.5 43.5-14.26 13.74-39 17h-391q-28.66-3.84-43.5-21.5-13.74-14.26-17-39v-391Q3.84 31.84 21.5 17q14.26-13.74 39-17ZM341 124l-1 1h-30l-3 1-1 3v23H169l-5 5-7 13-3 8-86 160-22 44 1 3q1 3 8 2l3-4q6-8 18-11l14 1q10 5 17 14h5q7-11 22-15 8-1 13 1 10 4 16 13l7 1 2-3q7-9 19-12l13 1q11 5 18 14h241l3-4-1-4-87-164v-86l-1-2-6-3h-30Z"></path><path fill="#7EC345" stroke="#7EC345" opacity=".996" d="M317 135h50v56.5l-2-1-16-32-4.5-5.5-2-1H317v-17ZM173.5 163h43l.5 1.5-20 39.5-17.5-10-16-1q-1.25 2.25-6 1l.5-1.5 15.5-29.5ZM230.5 163h43l.5 2.5-20.5 38.5q-6.87-6.63-17-10l-16-1-5.5 1 15.5-31Z"></path><path fill="#7EC345" stroke="#7EC345" opacity=".996" d="m287 163 45 .5-20 38v2.5l-3.5-1-9-7-6-2-16-1-5.5 1 15-31ZM341.5 171 433 341.5l17 34.5h-11.5l-1.5-1.5L346 203l-6.5-1-3.5 3.5-15 27L245.5 376h-11l-.5-2.5L341.5 171ZM164.5 204q17.01-.25 24.5 8l2 3.5-24.5 44.5-14-9q-6.87-3.62-19-2l-5.5 1q7.93-24.44 24.5-41l12-5ZM221.5 204q18.58-1.08 25.5 9.5l1 3-23 42.5h-2.5q-7.41-7.09-19-10h-12q-1.25 2.25-6 1l.5-1.5q7.9-21.6 21.5-37.5l14-7ZM279.5 204q17.75-.75 24.5 9.5l1 3-23.5 43.5-14-9q-7.17-3.33-19-2l-5 2-.5-2.5 14-28 6.5-8.5q6-6 16-8Z"></path><path fill="#7EC345" stroke="#7EC345" opacity=".996" d="M341.5 220 418 362.5l6 13.5H259.5l-.5-1.5 73-139 9.5-15.5ZM135.5 260l13 1 11.5 8.5 1 2-23.5 44.5q-6.9-7.1-18-10l-16-1-5 2-.5-1.5 15-29 6.5-8.5q5.87-6.13 16-8ZM192.5 260q19.24-1.24 25.5 10.5-9.19 23.31-22 43v2.5l-18.5-10-17-1-5.5 2 17-33.5 7.5-7.5 13-6ZM248.5 260q19.34-1.34 26.5 9.5l1 2-24.5 43.5-17-9-16-1-5.5 1 16-31.5 7.5-8.5 12-6ZM104.5 316q19.71-.71 27.5 10.5L107.5 372q-9.92-12.58-34-11l-4.5 1q7.69-23.69 23.5-40l12-6ZM162.5 316q19.57-1.07 26.5 10.5L164.5 372l-13-9q-7.56-3.44-20-2l-5 1 .5-1.5q7.9-21.6 21.5-37.5l14-7ZM219.5 316h11l15.5 9.5q-10.23 24.77-23.5 46.5l-14-9q-7.17-3.33-19-2-1.25 2.25-6 1l.5-1.5 16-31 8.5-8.5 11-5Z"></path><path fill="#FEFEFD" stroke="#FEFEFD" d="M348.5 124q18.25-2.25 28.5 3.5l1 5v41l-1 1v39l79 149 9 18v3l-1 2.5-2.5 1h-232l-1-1H220l-4.5-6-13-8-9-1q-13.42 2.2-20.5 10l-3.5 5-4 1-12-11q-6.21-5.29-18-5-14 3-21.5 12.5l-1.5 2.5-4 1-14-12q-5.58-4.42-16-4l-10 3q-9.25 4.75-15 13h-3l-2.5-1-1-6.5q47.03-92.47 97-182l14-29 9.5-15.5h138l1.5-1.5v-24l1.5-1.5 2-1h37l1-1ZM317 135v18h27l5 7q7 18 18 33h1v-56l-1-2h-50Zm-145 28-15 31v1l10-2 14 2q8 3 14 9h2l21-40-46-1Zm59 0-3 3-14 29 10-2 15 2 12 8 4 1 20-39v-2h-44Zm57 0-17 32 10-2 15 2q8 3 14 9h2l20-38v-3h-44Zm54 7L233 375l1 2h13l7-16 82-154q1-6 8-5l3 4 90 170 2 1h12v-2L342 170Zm-174 33q-11 2-17 7-15 16-23 40v1l9-2 12 1 18 10 21-37 3-8q-7-11-23-12Zm57 0q-10 1-15 6l-10 11-15 29v2l9-2q9-1 15 2l16 9 22-40 1-5q-7-11-23-12Zm59 0q-12 1-18 7l-9 10-15 31 9-2q20 1 31 11l2-2 21-40v-3l-3-5q-6-6-18-7Zm56 16-9 20-73 137 1 1h166l-15-30-68-126q1-3-2-2Zm-87 40q-10 1-15 6l-9 9-17 33 11-2q19 1 29 11l24-43-1-4-13-9-9-1Zm-120 1-10 5-9 9-16 32v1q5 1 8-2 9-1 16 2l15 9h2l22-43-2-6-12-7h-14Zm58 0-12 6-8 9-16 31v1q5 1 8-2 9-1 16 2l17 9 23-44-1-2q-5-7-13-10h-14Zm-82 55q-11 2-17 7-16 18-24 41l10-2 12 1q10 4 18 10l2-2 22-42-1-4q-7-8-22-9Zm57 0q-10 1-15 6l-10 11-15 29 1 2 8-2q10 0 18 3l13 8 24-45q-8-11-24-12Zm57 0q-10 2-16 7l-7 7-17 32v2l9-2 13 1q10 3 17 10h2l23-45q-6-8-15-11l-9-1Z"></path><path fill="#7EC345" stroke="#7EC345" opacity=".576" d="m57.5 0 2.5.5-2.5.5V0ZM452.5 0l2.5.5-2.5.5V0ZM51.5 1l1.5.5-1.5.5V1ZM459.5 1l1.5.5-1.5.5V1ZM23.5 15l-1 2 1-2ZM488.5 15l1 2-1-2ZM16.5 22l-1 2 1-2ZM495.5 22l1 2-1-2ZM1.5 51l.5 1.5H1l.5-1.5ZM510.5 51l.5 1.5h-1l.5-1.5ZM.5 57l.5 2.5H0L.5 57ZM511.5 57l.5 2.5h-1l.5-2.5ZM.5 452l.5 2.5H0l.5-2.5ZM511.5 452l.5 2.5h-1l.5-2.5ZM1.5 459l.5 1.5H1l.5-1.5ZM510.5 459l.5 1.5h-1l.5-1.5ZM15.5 488l1 2-1-2ZM496.5 488l-1 2 1-2ZM22.5 495l1 2-1-2ZM489.5 495l-1 2 1-2ZM51.5 510l1.5.5-1.5.5v-1ZM459.5 510l1.5.5-1.5.5v-1ZM57.5 511l2.5.5-2.5.5v-1ZM452.5 511l2.5.5-2.5.5v-1Z"></path><path fill="#CBE7B4" stroke="#CBE7B4" d="m340.5 124 7.5.5-7.5.5v-1ZM367.5 124l3.5.5-3.5.5v-1ZM374.5 125l2.5 1.5-1.5-.5-1-1ZM306.5 128l.5 23.5-1.5 1.5h-137v-1h137l.5-.5.5-23.5ZM377.5 128l.5 3.5h-1l.5-3.5ZM367.5 136l.5 57-3-1.5h2l.5-55.5ZM317.5 152l25.5.5-25.5.5v-1ZM344.5 153l2 3-2-3ZM347.5 157l1 2-1-2ZM274.5 163l.5 1.5h-1l.5-1.5ZM331.5 164l.5 1.5-2 1 1.5-2.5ZM228.5 165l.5 1.5h-1l.5-1.5ZM157.5 169l.5 1.5h-1l.5-1.5ZM341.5 170l1 2-1-2ZM155.5 173l.5 1.5-2 1 1.5-2.5ZM167.5 173l-1 2 1-2ZM269.5 173l.5 1.5-2 1 1.5-2.5ZM356.5 174l.5 1.5h-1l.5-1.5ZM377.5 174l.5 39.5h-1l.5-39.5ZM211.5 175l-.5 1.5-.5 1.5-.5-1.5 1.5-1.5ZM358.5 178l1.5 2.5-2-1 .5-1.5ZM208.5 181l-1 2 1-2ZM348.5 183l1.5 2.5h-1l-.5-2.5ZM205.5 186l.5 1.5h-1l.5-1.5ZM274.5 187l.5 1.5-2 1 1.5-2.5ZM332.5 187l-.5 1.5-.5 1.5-.5-1.5 1.5-1.5ZM203.5 190l.5 1.5-2 1 1.5-2.5ZM329.5 192l.5 1.5-2 1 1.5-2.5ZM163.5 193l2.5.5-2.5.5v-1ZM172.5 193l2.5.5-2.5.5v-1ZM214.5 193l2.5 1.5-3 .5.5-2ZM220.5 193l2.5.5-2.5.5v-1ZM229.5 193l2.5.5-2.5.5v-1ZM271.5 193l3.5 1.5-4 .5.5-2ZM277.5 193l2.5.5-2.5.5v-1ZM286.5 193l2.5.5-2.5.5v-1ZM156.5 194l3.5.5-3.5.5v-1ZM177.5 194l2.5.5-2.5.5v-1ZM234.5 194l2.5.5-2.5.5v-1ZM292.5 194l1.5.5-1.5.5v-1ZM144.5 195l-.5 1.5-.5 1.5-.5-1.5 1.5-1.5ZM183.5 196l1.5.5-1.5.5v-1ZM298.5 196l1.5.5-1.5.5v-1ZM355.5 196l1.5 2.5h-1l-.5-2.5ZM186.5 197l1 2-1-2ZM245.5 198l1 2-1-2ZM189.5 199l1 2-1-2ZM313.5 199l.5 1.5-2 1 1.5-2.5ZM305.5 200l1 2-1-2ZM249.5 201l1 2-1-2ZM193.5 202l1 2-1-2ZM339.5 202l-3 4 3-4ZM167.5 203l3.5.5-3.5.5v-1ZM224.5 203l3.5.5-3.5.5v-1ZM283.5 203l1.5.5-1.5.5v-1ZM162.5 204l1.5.5-1.5.5v-1ZM231.5 204l1.5.5-1.5.5v-1ZM277.5 204l1.5.5-1.5.5v-1ZM177.5 205l1.5.5-1.5.5v-1ZM216.5 205l1.5.5-1.5.5v-1ZM273.5 205l1.5.5-1.5.5v-1ZM292.5 205l1.5.5-1.5.5v-1ZM269.5 207l-1 2 1-2ZM297.5 207l1 2-1-2ZM241.5 208l2 3-2-3ZM185.5 209l2 3-2-3ZM209.5 209l-1 2 1-2ZM150.5 210l-2 3 2-3ZM265.5 210l-1 2 1-2ZM320.5 210l-1 2 1-2ZM189.5 213l1 2-1-2ZM364.5 213l1.5 2.5h-1l-.5-2.5ZM261.5 214l-1 2 1-2ZM351.5 214l2.5 3.5-2-1-.5-2.5ZM145.5 216l-1 2 1-2ZM247.5 217l-.5 1.5-.5 1.5-.5-1.5 1.5-1.5ZM304.5 217l-1 2 1-2ZM201.5 218l-1 2 1-2ZM258.5 218l-1 2 1-2ZM143.5 219l-1 2 1-2ZM340 219l2 .5-3 2 1-2.5ZM188.5 220l-.5 1.5-1.5 2.5.5-1.5 1.5-2.5ZM140.5 224l-.5 1.5-.5 1.5-.5-1.5 1.5-1.5ZM383.5 225l1.5 2.5h-1l-.5-2.5ZM371.5 226l1.5 2.5h-1l-.5-2.5ZM311.5 227l-1 2 1-2ZM240.5 230l-.5 1.5-1.5 2.5.5-1.5 1.5-2.5ZM322.5 231l-1 2 1-2ZM334.5 231l-.5 1.5-.5 1.5-.5-1.5 1.5-1.5ZM360.5 231l2.5 3.5-2-1-.5-2.5ZM374.5 231l1.5 2.5-2-1 .5-1.5ZM331.5 236l.5 1.5h-1l.5-1.5ZM351.5 238l1 2-1-2ZM247.5 239l.5 1.5-2 1 1.5-2.5ZM292.5 239l.5 1.5h-1l.5-1.5ZM119.5 242l-.5 1.5-1.5 2.5.5-1.5 1.5-2.5ZM233.5 243l-1 2 1-2ZM367.5 244l1.5 2.5h-1l-.5-2.5ZM174.5 246l-.5 1.5-1.5 2.5.5-1.5 1.5-2.5ZM395.5 247l1.5 2.5-2-1 .5-1.5ZM133.5 249l2.5.5-2.5.5v-1ZM144.5 249l2.5.5-2.5.5v-1ZM191.5 249l1.5.5-1.5.5v-1ZM201.5 249l2.5.5-2.5.5v-1ZM242.5 249l.5 1.5h-1l.5-1.5ZM248.5 249l1.5.5-1.5.5v-1ZM258.5 249l2.5.5-2.5.5v-1ZM299.5 249l.5 1.5-2 1 1.5-2.5ZM127.5 250l3.5.5-3.5.5v-1ZM185.5 250l2.5.5-2.5.5v-1ZM244.5 250l1.5.5-1.5.5v-1ZM263.5 250l1.5.5-1.5.5v-1ZM151.5 251l1.5.5-1.5.5v-1ZM266.5 251l1.5.5-1.5.5v-1ZM269.5 252l2.5 1.5-1.5.5-1-2ZM323.5 252l-.5 1.5-1.5 2.5.5-1.5 1.5-2.5ZM227.5 254l-.5 1.5-1.5 2.5.5-1.5 1.5-2.5ZM217.5 255l1 2-1-2ZM276.5 256l1 2-1-2ZM220.5 257l1 2-1-2ZM223.5 259l1.5.5-1.5.5v-1ZM252.5 259l3.5.5-3.5.5v-1ZM132.5 260l2.5.5-2.5.5v-1ZM145.5 260l1.5.5-1.5.5v-1ZM190.5 260l1.5.5-1.5.5v-1ZM202.5 260l2.5.5-2.5.5v-1ZM246.5 260l1.5.5-1.5.5v-1ZM259.5 260l2.5.5-2.5.5v-1ZM306.5 260l.5 1.5-2 1 1.5-2.5ZM184.5 262l1.5.5-2.5 1.5 1-2ZM377.5 262l1.5 2.5-2-1 .5-1.5ZM153.5 263l2 3-2-3ZM181.5 264l-1 2 1-2ZM269.5 264l1 2-1-2ZM404.5 264l1.5 2.5-2-1 .5-1.5ZM122.5 265l-2 3 2-3ZM213.5 265l4 5-4-5ZM178.5 266l-5 6 5-6ZM273.5 267l1 2-1-2ZM367.5 268l1 2-1-2ZM116.5 271l-1.5 2.5-.5 1.5-.5-1.5 2.5-2.5ZM231.5 271l-2 3 2-3ZM103.5 272l-1 2 1-2ZM311.5 275l-1 2 1-2ZM297.5 278l-1 2 1-2ZM386.5 279l1.5 2.5-2-1 .5-1.5ZM399.5 279l1 2-1-2ZM225.5 281l-.5 1.5-.5 1.5-.5-1.5 1.5-1.5ZM212.5 282l.5 1.5h-1l.5-1.5ZM282.5 282l-.5 1.5-1.5 2.5.5-1.5 1.5-2.5ZM96.5 285l-1 2 1-2ZM376.5 285l1 2-1-2ZM415.5 285l1.5 2.5-2-1 .5-1.5ZM153.5 286l-.5 1.5-.5 1.5-.5-1.5 1.5-1.5ZM105.5 290l.5 1.5-2 1 1.5-2.5ZM151.5 290l-.5 1.5-1.5 2.5.5-1.5 1.5-2.5ZM302.5 292l-1 2 1-2ZM393.5 292l1.5 2.5-2-1 .5-1.5ZM148.5 295l.5 1.5-2 1 1.5-2.5ZM288.5 295l-.5 1.5-.5 1.5-.5-1.5 1.5-1.5ZM261.5 298l-.5 1.5-1.5 2.5.5-1.5 1.5-2.5ZM158.5 299l-.5 1.5-.5 1.5-.5-1.5 1.5-1.5ZM286.5 299l-.5 1.5-.5 1.5-.5-1.5 1.5-1.5ZM272.5 301l-1 2 1-2ZM103.5 305l1.5.5-1.5.5v-1ZM113.5 305l2.5.5-2.5.5v-1ZM160.5 305l1.5.5-1.5.5v-1ZM171.5 305l1.5.5-1.5.5v-1ZM212.5 305l3.5 1.5-4 .5.5-2ZM218.5 305l3.5.5-3.5.5v-1ZM228.5 305l2.5.5-2.5.5v-1ZM99.5 306l2.5.5-2.5.5v-1ZM118.5 306l1.5.5-1.5.5v-1ZM157.5 306l1.5.5-1.5.5v-1ZM175.5 306l2.5.5-2.5.5v-1ZM233.5 306l1.5.5-1.5.5v-1ZM124.5 308l1.5.5-1.5.5v-1ZM181.5 308l1.5.5-1.5.5v-1ZM293.5 309l-.5 1.5-.5 1.5-.5-1.5 1.5-1.5ZM415.5 309l1 2-1-2ZM186.5 310l1 2-1-2ZM254.5 311l-.5 1.5-2.5 3.5 1.5-2.5 1.5-2.5ZM132.5 312l1 2-1-2ZM189.5 312l1 2-1-2ZM196.5 313l.5 1.5h-1l.5-1.5ZM192.5 314l1 2-1-2ZM108.5 315l3.5.5-3.5.5v-1ZM165.5 315l3.5.5-3.5.5v-1ZM222.5 315l5.5.5-5.5.5v-1ZM392.5 315l2.5 3.5-2-1-.5-2.5ZM160.5 316l1.5.5-1.5.5v-1ZM172.5 316l1.5.5-1.5.5v-1ZM118.5 317l1.5.5-1.5.5v-1ZM157.5 317l1.5.5-1.5.5v-1ZM263.5 318l-1 2 1-2ZM77.5 320l.5 1.5-2 1 1.5-2.5ZM94.5 320l-1 2 1-2ZM125.5 320l2 3-2-3ZM150.5 321l-1 2 1-2ZM241.5 321l1 2-1-2ZM91.5 322l-3 4 3-4ZM185.5 322l4 5-4-5ZM206.5 322l-6 7 6-7ZM274.5 322l-1 2 1-2ZM436.5 325l1.5 2.5-2-1 .5-1.5ZM284.5 326l-.5 1.5-.5 1.5-.5-1.5 1.5-1.5ZM424.5 326l2.5 3.5-2-1-.5-2.5ZM144.5 327l-1 2 1-2ZM86.5 328l-1 2 1-2ZM142.5 330l-1 2 1-2ZM185.5 333l.5 1.5-2 1 1.5-2.5ZM139.5 335l-1 2 1-2ZM68.5 337l.5 1.5-2 1 1.5-2.5ZM80.5 338l-1 2 1-2ZM417.5 338l1 2-1-2ZM445.5 342l1.5 2.5-2-1 .5-1.5ZM237.5 343l.5 1.5h-1l.5-1.5ZM263.5 343l-.5 1.5-.5 1.5-.5-1.5 1.5-1.5ZM433.5 343l1 2-1-2ZM408.5 345l1 2-1-2ZM178.5 347l-1 2 1-2ZM235.5 347l.5 1.5-2 1 1.5-2.5ZM233.5 351l.5 1.5-2 1 1.5-2.5ZM116.5 355l.5 1.5-2 1 1.5-2.5ZM185.5 356l.5 1.5-2 1 1.5-2.5ZM242.5 357l.5 1.5h-1l.5-1.5ZM454.5 360l1 2-1-2ZM68.5 361l1 2q-2.79.67-1-2ZM73.5 361l3.5.5-3.5.5v-1ZM84.5 361l2.5.5-2.5.5v-1ZM131.5 361l2.5.5-2.5.5v-1ZM141.5 361l3.5.5-3.5.5v-1ZM189.5 361l1.5.5-1.5.5v-1ZM199.5 361l2.5.5-2.5.5v-1ZM253.5 361l.5 1.5h-1l.5-1.5ZM183.5 362l2.5.5-2.5.5v-1ZM55.5 363l-.5 1.5-.5 1.5-.5-1.5 1.5-1.5ZM92.5 363l1.5.5-1.5.5v-1ZM150.5 363l1.5.5-1.5.5v-1ZM207.5 363l1.5.5-1.5.5v-1ZM169.5 364l-1 2 1-2ZM155.5 365l1 2-1-2ZM101.5 367l1 2-1-2ZM110.5 367l-.5 1.5-.5 1.5-.5-1.5 1.5-1.5ZM158.5 367l1 2-1-2ZM217.5 368l1 2-1-2ZM161.5 369l1 2-1-2ZM105.5 370l1 2-1-2ZM220.5 370l1 2-1-2ZM78.5 371l5.5.5-5.5.5v-1ZM135.5 371l5.5.5-5.5.5v-1ZM193.5 371l4.5.5-4.5.5v-1ZM73.5 372l1.5.5-1.5.5v-1ZM86.5 372l2.5.5-2.5.5v-1ZM130.5 372l2.5.5-2.5.5v-1ZM144.5 372l1.5.5-1.5.5v-1ZM188.5 372l1.5.5-1.5.5v-1ZM200.5 372l2.5.5-2.5.5v-1ZM449.5 373l1.5 4h-12.5l-1.5-1.5 1.5.5h11l.5-1.5-.5-1.5ZM233.5 374l.5 2h11.5l1-1 .5 2h-13.5v-3ZM94.5 375l1 2-1-2ZM181.5 375l-1 2 1-2ZM258.5 375l1 1h164l1.5-.5-.5 1.5H258l.5-2ZM122.5 376l-1 2 1-2ZM153.5 376l9 10-9-10ZM210.5 376l1 2-1-2ZM63.5 377l-2 3 2-3ZM97.5 377l10.5 9.5-1.5.5-9-10ZM178.5 377l-1 2 1-2ZM463.5 377l1.5 2.5h-1l-.5-2.5ZM119.5 378l-5 6 5-6ZM215.5 380l4 5-4-5ZM46.5 381l.5 1.5h-1l.5-1.5ZM465.5 381l.5 1.5h-1l.5-1.5ZM57.5 383l-3 4 3-4ZM171.5 384l-2 3-1.5-.5 3.5-2.5ZM221.5 386l7.5.5-7.5.5v-1Z"></path><path fill="#75C83D" stroke="#75C83D" opacity=".125" d="m21.5 16-5 6 5-6ZM490.5 16l5 6-5-6ZM16.5 490l5 6-5-6ZM495.5 490l-5 6 5-6Z"></path><path fill="#7EC446" stroke="#7EC446" opacity=".286" d="m54.5 0 2.5.5-2.5.5V0ZM455.5 0l2.5.5-2.5.5V0ZM.5 54l.5 2.5H0L.5 54ZM511.5 54l.5 2.5h-1l.5-2.5ZM.5 455l.5 2.5H0l.5-2.5ZM511.5 455l.5 2.5h-1l.5-2.5ZM54.5 511l2.5.5-2.5.5v-1ZM455.5 511l2.5.5-2.5.5v-1Z"></path></svg>