<svg viewBox="0 0 512 512" xmlns="http://www.w3.org/2000/svg"><path fill="#7EC345" stroke="#7EC345" opacity=".996" d="M60.5 0h391q28.66 3.84 43.5 21.5 13.74 14.26 17 39v391q-3.84 28.66-21.5 43.5-14.26 13.74-39 17h-391q-28.66-3.84-43.5-21.5-13.74-14.26-17-39v-391Q3.84 31.84 21.5 17q14.26-13.74 39-17ZM155 71l-13 6q-16 3-27 9l-4 4v8l-2 7v9l-2 7q-1 22-5 42v8q-3 9-3 23l-1 1v9l7 4-2 38-1 1v15l-1 1v11l-1 1v16l-1 1 1 7q2 4 9 3v10l-2 8v9l-2 9v8q-4 15-4 34l-1 1-1 16 7 4 21 2 7 2 33 4 1 1 21 2 6 2 28 3 6 2h7l6 2h7l1 1q21 1 40 6h7l7 2h7l29 5h8l6 2 31 3 1 1 21-3 6-2 1-1V111l-6-4h-7l-7-2h-7l-14-3h-7l-20-4h-7l-7-2-39-5-7-2-28-3-6-2h-7l-7-2-83-11Z"/><path fill="#7EC345" stroke="#7EC345" opacity=".996" d="M155.5 83h10q5.22 2.78 14 2l7 2 27 3 6 2h7l28 5h7l6 2h7l6 2h7l28 5h7l6 2h7l6 2 28 3 23.5 4.5-12.5 7.5q-22.09-5.41-48-7l-6-2h-7l-6-2h-7q-8.63-3.37-21-3l-6-2h-7l-7-2h-7l-7-2-19-2-1-1h-7l-6-2h-7l-6-2h-7l-1-1q-21.74-1.26-40-6h-7l-8.5-2.5 13.5-5.5ZM122 98l256 37v94.5l-.5.5h-8l-22-4-33-3-6-2q-9.62 1.13-15-2h-8l-1-1-23-2-8-2h-8l-7-2h-8l-7-2-32-3-22-4h-8l-8-2-16-1-1-1-26.5-3 2-23.5 1-1v-9l2-7v-9l2-7 4-39 1-2.5ZM401.5 125l1.5.5V427q-7.96-.78-13.5 2l-.5-294.5 12.5-9.5ZM117 208l18.5 2 1 1h8l6 2h9l7 2 46 5 8 2 32 3 7 2h8l7 2 31 3 8 2h8l7 2h8l7 2 32 3 2.5 1v83.5l-2.5.5-22-4-32-3-7-2h-8l-8-2-30-3-8-2h-8l-7-2h-8l-7-2-32-3-22-4h-8l-8-2q-26.73-1.65-49.5-6l1-5.5v-18l1-1q-1.07-15.57 2-27l1-29 1-2.5ZM121.5 304 378 337l-.5 92-7-2h-7l-7-2-28-3-6-2h-7l-21-4-15-1-6-2h-7l-7-2h-6l-29-5h-7l-7-2h-7l-6-2h-7l-1-1-20-2-7-2h-7l-7-2h-7l-14-3h-7l-9.5-2 1-2.5 1-19 2-9v-10l2-8 2-28q2.75-1.75 1-8l1.5-1.5Z"/><path fill="#FCFDFA" stroke="#FCFDFA" d="m153.5 72 23 2 7 2h8l7 2h7l1 1 55 7 7 2h7l6 2h7l33 6 14 1 19 4h7l7 2h7q12.24 3.76 28 4 1.25 2.25 6 1l3.5 2.5 1 322-2.5 3.5-21 4h-10l-7-2h-8q-23.76-5.24-51-7l-7-2h-7l-7-2h-7l-14-3h-7l-20-4h-7l-6-2h-7l-27-5h-7l-6-2-28-3-6-2h-8l-7-2-21-2-1-1-11-1-3.5-2.5v-11l1-1v-8l1-1v-8l2-9v-9l1-1 5-47-1.5-1.5q-5.44.63-7.5-1-2.62-4.56-1-15.5l1-1 2-45 1-1v-15l1-1q-.92-9.88 1-15.5-5.88.87-8-3.5l4-36 1-1v-7l1-1v-8l2-7 2-25 2-8 1-16 2.5-6.5 8-4 24-7 8-4Zm3.5 10-17 8q8-1 14 2h7l7 2h6l1 1h6l1 1h6l1 1h6l7 2h6l7 2h7l14 3h6l7 2h7l20 4 27 3 7 2h7l6 2 28 3 20 4h7l1 1h4l11-7-1-2q-9 1-13-2l-27-3-7-2h-7l-27-5h-7l-6-2h-7l-7-2h-7l-7-2-19-2-1-1h-7l-6-2h-7l-27-5h-7l-6-2h-7l-7-2-20-2Zm-36 15-12 99 2 1h8l8 2 22 2 1 1h8l7 2h8l8 2 31 3 7 2h8l8 2 31 3 8 2 23 2 7 2h8l1 1h7l8 2h8l7 2h8l1 1 26 3 1-1v-95L121 97Zm282 27-12 9-2 1v295l14-2V124Zm-286 83-2 25-1 1v13l-1 1v13l-1 1v13l-1 1v17l23 2 8 2h8l7 2h8l7 2h8l7 2h8l16 3h7l8 2h8l23 4 16 1 7 2h8q20 5 45 6l1 1h8l7 2h8l16 3q6 1 6 0v-83l-1-2-13-1-1-1h-8l-7-2h-8l-8-2-22-2-1-1h-8l-23-4h-8l-7-2-31-3-23-4h-8l-8-2-22-2-1-1h-8l-7-2h-8l-7-2h-8l-16-3Zm3 97-9 87 27 3 7 2h7l7 2 14 1 7 2h7l7 2h7l7 2h7l14 3h7l6 2h7l29 5h6l1 1h6l1 1h6l7 2h7l7 2 14 1 7 2h7l7 2h7l6 2h8l1 1h3v-92l-24-4h-9l-7-2h-8l-8-2-31-3-8-2h-8l-7-2-22-2-1-1h-8l-23-4h-8l-16-3h-8l-7-2h-8q-23-5-48-6Z"/><path fill="#BFE1A3" stroke="#BFE1A3" d="m161.5 72 1.5.5-1.5.5v-1ZM168.5 73l1.5.5-1.5.5v-1ZM183.5 75l2.5.5-2.5.5v-1ZM198.5 77l2.5.5-2.5.5v-1ZM213.5 79l2.5.5-2.5.5v-1ZM220.5 80l1.5.5-1.5.5v-1ZM156.5 82l1.5.5-1.5.5v-1ZM160.5 82l2.5.5-2.5.5v-1ZM234.5 82l1.5.5-1.5.5v-1ZM174.5 84l2.5.5-2.5.5v-1ZM248.5 84l1.5.5-1.5.5v-1ZM181.5 85l1.5.5-1.5.5v-1ZM255.5 85l1.5.5-1.5.5v-1ZM188.5 86l2.5.5-2.5.5v-1ZM262.5 86l1.5.5-1.5.5v-1ZM194.5 87l1.5.5-1.5.5v-1ZM268.5 87l1.5.5-1.5.5v-1ZM202.5 88l1.5.5-1.5.5v-1ZM140.5 89l1.5.5-1.5.5v-1ZM208.5 89l1.5.5-1.5.5v-1ZM281.5 89l1.5.5-1.5.5v-1ZM111.5 90l.5 2.5h-1l.5-2.5ZM153.5 91l2.5.5-2.5.5v-1ZM222.5 91l1.5.5-1.5.5v-1ZM295.5 91l1.5.5-1.5.5v-1ZM167.5 93l2.5.5-2.5.5v-1ZM236.5 93l1.5.5-1.5.5v-1ZM308.5 93l2.5.5-2.5.5v-1ZM181.5 95l1.5.5-1.5.5v-1ZM249.5 95l1.5.5-1.5.5v-1ZM321.5 95l2.5.5-2.5.5v-1ZM255.5 96l1.5.5-1.5.5v-1ZM328.5 96l1.5.5-1.5.5v-1ZM129.5 98l2.5.5-2.5.5v-1ZM269.5 98l1.5.5-1.5.5v-1ZM341.5 98l1.5.5-1.5.5v-1ZM110.5 99l.5 1.5h-1l.5-1.5ZM136.5 99l1.5.5-1.5.5v-1ZM208.5 99l1.5.5-1.5.5v-1ZM349.5 99l1.5.5-1.5.5v-1ZM143.5 100l1.5.5-1.5.5v-1ZM214.5 100l2.5.5-2.5.5v-1ZM282.5 100l2.5.5-2.5.5v-1ZM354.5 100l2.5.5-2.5.5v-1ZM149.5 101l1.5.5-1.5.5v-1ZM362.5 101l1.5.5-1.5.5v-1ZM157.5 102l1.5.5-1.5.5v-1ZM228.5 102l1.5.5-1.5.5v-1ZM296.5 102l2.5.5-2.5.5v-1ZM368.5 102l2.5.5-2.5.5v-1ZM163.5 103l1.5.5-1.5.5v-1ZM242.5 104l1.5.5-1.5.5v-1ZM310.5 104l1.5.5-1.5.5v-1ZM383.5 104l1.5.5-1.5.5v-1ZM177.5 105l1.5.5-1.5.5v-1ZM248.5 105l1.5.5-1.5.5v-1ZM316.5 105l1.5.5-1.5.5v-1ZM389.5 105l1.5.5-1.5.5v-1ZM256.5 106l1.5.5-1.5.5v-1ZM109.5 107l.5 2.5h-1l.5-2.5ZM190.5 107l2.5.5-2.5.5v-1ZM262.5 107l1.5.5-1.5.5v-1ZM330.5 107l1.5.5-1.5.5v-1ZM404.5 107l1.5.5-1.5.5v-1ZM197.5 108l1.5.5-1.5.5v-1ZM269.5 108l1.5.5-1.5.5v-1ZM205.5 109l1.5.5-1.5.5v-1ZM275.5 109l2.5.5-2.5.5v-1ZM344.5 109l1.5.5-1.5.5v-1ZM350.5 110l1.5.5-1.5.5v-1ZM218.5 111l1.5.5-1.5.5v-1ZM289.5 111l1.5.5-1.5.5v-1ZM357.5 111l1.5.5-1.5.5v-1ZM413.5 111l.5 139.5h-1l.5-139.5ZM364.5 112l1.5.5-1.5.5v-1ZM371.5 113l1.5.5-1.5.5v-1ZM238.5 114l2.5.5-2.5.5v-1ZM309.5 114l1.5.5-1.5.5v-1ZM377.5 114l2.5.5-2.5.5v-1ZM108.5 115l.5 1.5h-1l.5-1.5ZM245.5 115l1.5.5-1.5.5v-1ZM384.5 115l1.5.5-1.5.5v-1ZM252.5 116l1.5.5-1.5.5v-1ZM322.5 116l2.5.5-2.5.5v-1ZM391.5 116l2.5 1.5-1.5-.5-1-1ZM258.5 117l1.5.5-1.5.5v-1ZM330.5 117l1.5.5-1.5.5v-1ZM336.5 118l2.5.5-2.5.5v-1ZM118.5 119l.5 2.5h-1l.5-2.5ZM343.5 119l1.5.5-1.5.5v-1ZM279.5 120l1.5.5-1.5.5v-1ZM286.5 121l1.5.5-1.5.5v-1ZM364.5 122l1.5.5-1.5.5v-1ZM385.5 122l-1 2 1-2ZM107.5 123l.5 2.5h-1l.5-2.5ZM299.5 123l2.5.5-2.5.5v-1ZM370.5 123l1.5.5-1.5.5v-1ZM306.5 124l1.5.5-1.5.5v-1ZM313.5 125l1.5.5-1.5.5v-1ZM400.5 125l-1 2 1-2ZM327.5 127l1.5.5-1.5.5v-1ZM117.5 128l.5 1.5h-1l.5-1.5ZM333.5 128l1.5.5-1.5.5v-1ZM340.5 129l1.5.5-1.5.5v-1ZM347.5 130l1.5.5-1.5.5v-1ZM106.5 131l.5 1.5h-1l.5-1.5ZM361.5 132l1.5.5-1.5.5v-1ZM367.5 133l1.5.5-1.5.5v-1ZM374.5 134l1.5.5-1.5.5v-1ZM116.5 135l.5 2.5h-1l.5-2.5ZM378.5 135l.5 94.5h-1l.5-94.5ZM105.5 140l.5 2.5h-1l.5-2.5ZM114.5 150l.5 3.5h-1l.5-3.5ZM113.5 159l.5 1.5h-1l.5-1.5ZM102.5 163l.5 2.5h-1l.5-2.5ZM112.5 167l.5 2.5h-1l.5-2.5ZM111.5 175l.5 2.5h-1l.5-2.5ZM100.5 180l.5 2.5h-1l.5-2.5ZM110.5 185l.5 1.5h-1l.5-1.5ZM99.5 188l.5 1.5h-1l.5-1.5ZM109.5 192l.5 2.5h-1l.5-2.5ZM110.5 196l2.5.5-2.5.5v-1ZM98.5 197l.5 2.5h-1l.5-2.5ZM126.5 198l1.5.5-1.5.5v-1ZM142.5 200l1.5.5-1.5.5v-1ZM149.5 201l1.5.5-1.5.5v-1ZM158.5 202l1.5.5-1.5.5v-1ZM164.5 203l2.5.5-2.5.5v-1ZM173.5 204l1.5.5-1.5.5v-1ZM180.5 205l2.5.5-2.5.5v-1ZM105.5 206l.5 3.5h-1l.5-3.5ZM188.5 206l1.5.5-1.5.5v-1ZM196.5 207l1.5.5-1.5.5v-1ZM122.5 208l2.5.5-2.5.5v-1ZM203.5 208l1.5.5-1.5.5v-1ZM130.5 209l1.5.5-1.5.5v-1ZM137.5 210l3.5.5-3.5.5v-1ZM218.5 210l1.5.5-1.5.5v-1ZM145.5 211l1.5.5-1.5.5v-1ZM227.5 211l1.5.5-1.5.5v-1ZM153.5 212l2.5.5-2.5.5v-1ZM234.5 212l2.5.5-2.5.5v-1ZM242.5 213l1.5.5-1.5.5v-1ZM169.5 214l1.5.5-1.5.5v-1ZM250.5 214l2.5.5-2.5.5v-1ZM176.5 215l1.5.5-1.5.5v-1ZM257.5 215l1.5.5-1.5.5v-1ZM266.5 216l1.5.5-1.5.5v-1ZM192.5 217l1.5.5-1.5.5v-1ZM273.5 217l1.5.5-1.5.5v-1ZM281.5 218l1.5.5-1.5.5v-1ZM104.5 219l.5 2.5h-1l.5-2.5ZM115.5 219l.5 2.5h-1l.5-2.5ZM207.5 219l2.5.5-2.5.5v-1ZM288.5 219l2.5.5-2.5.5v-1ZM215.5 220l1.5.5-1.5.5v-1ZM223.5 221l2.5.5-2.5.5v-1ZM303.5 221l2.5.5-2.5.5v-1ZM230.5 222l1.5.5-1.5.5v-1ZM312.5 222l1.5.5-1.5.5v-1ZM238.5 223l2.5.5-2.5.5v-1ZM320.5 223l1.5.5-1.5.5v-1ZM246.5 224l1.5.5-1.5.5v-1ZM327.5 224l1.5.5-1.5.5v-1ZM254.5 225l1.5.5-1.5.5v-1ZM261.5 226l2.5.5-2.5.5v-1ZM342.5 226l1.5.5-1.5.5v-1ZM277.5 228l1.5.5-1.5.5v-1ZM358.5 228l2.5.5-2.5.5v-1ZM284.5 229l1.5.5-1.5.5v-1ZM366.5 229l1.5.5-1.5.5v-1ZM293.5 230l1.5.5-1.5.5v-1ZM374.5 230l1.5.5-1.5.5v-1ZM299.5 231l1.5.5-1.5.5v-1ZM114.5 232l.5 3.5h-1l.5-3.5ZM308.5 232l1.5.5-1.5.5v-1ZM315.5 233l1.5.5-1.5.5v-1ZM323.5 234l1.5.5-1.5.5v-1ZM331.5 235l1.5.5-1.5.5v-1ZM103.5 236l.5 1.5h-1l.5-1.5ZM338.5 236l1.5.5-1.5.5v-1ZM347.5 237l1.5.5-1.5.5v-1ZM362.5 239l1.5.5-1.5.5v-1ZM369.5 240l1.5.5-1.5.5v-1ZM377.5 241l1.5 1.5v83h-1v-83l-.5-1.5ZM113.5 246l.5 2.5h-1l.5-2.5ZM102.5 248l.5 4.5h-1l.5-4.5ZM112.5 260l.5 3.5h-1l.5-3.5ZM101.5 264l.5 2.5h-1l.5-2.5ZM111.5 274l.5 4.5h-1l.5-4.5ZM100.5 278l.5 5.5h-1l.5-5.5ZM118.5 292l1.5.5-1.5.5v-1ZM99.5 293l.5 3.5h-1l.5-3.5ZM134.5 294l1.5.5-1.5.5v-1ZM156.5 297l1.5.5-1.5.5v-1ZM165.5 298l1.5.5-1.5.5v-1ZM171.5 299l2.5.5-2.5.5v-1ZM180.5 300l1.5.5-1.5.5v-1ZM186.5 301l3.5.5-3.5.5v-1ZM195.5 302l1.5.5-1.5.5v-1ZM202.5 303l2.5.5-2.5.5v-1ZM109.5 304l.5 3.5h-1l.5-3.5ZM210.5 304l1.5.5-1.5.5v-1ZM218.5 305l1.5.5-1.5.5v-1ZM142.5 306l2.5.5-2.5.5v-1ZM225.5 306l1.5.5-1.5.5v-1ZM158.5 308l1.5.5-1.5.5v-1ZM241.5 308l1.5.5-1.5.5v-1ZM119.5 309l.5 1.5h-1l.5-1.5ZM165.5 309l1.5.5-1.5.5v-1ZM249.5 309l1.5.5-1.5.5v-1ZM174.5 310l1.5.5-1.5.5v-1ZM256.5 310l2.5.5-2.5.5v-1ZM264.5 311l1.5.5-1.5.5v-1ZM189.5 312l1.5.5-1.5.5v-1ZM196.5 313l2.5.5-2.5.5v-1ZM279.5 313l2.5.5-2.5.5v-1ZM288.5 314l1.5.5-1.5.5v-1ZM212.5 315l2.5.5-2.5.5v-1ZM295.5 315l1.5.5-1.5.5v-1ZM303.5 316l1.5.5-1.5.5v-1ZM118.5 317l.5 1.5h-1l.5-1.5ZM228.5 317l1.5.5-1.5.5v-1ZM310.5 317l2.5.5-2.5.5v-1ZM235.5 318l1.5.5-1.5.5v-1ZM243.5 319l2.5.5-2.5.5v-1ZM326.5 319l1.5.5-1.5.5v-1ZM251.5 320l1.5.5-1.5.5v-1ZM333.5 320l1.5.5-1.5.5v-1ZM259.5 321l1.5.5-1.5.5v-1ZM107.5 322l.5 2.5h-1l.5-2.5ZM266.5 322l2.5.5-2.5.5v-1ZM348.5 322l1.5.5-1.5.5v-1ZM357.5 323l1.5.5-1.5.5v-1ZM282.5 324l1.5.5-1.5.5v-1ZM364.5 324l1.5.5-1.5.5v-1ZM372.5 325l1.5.5-1.5.5v-1ZM298.5 326l1.5.5-1.5.5v-1ZM305.5 327l1.5.5-1.5.5v-1ZM117.5 328l.5 1.5h-1l.5-1.5ZM313.5 328l1.5.5-1.5.5v-1ZM320.5 329l2.5.5-2.5.5v-1ZM106.5 331l.5 1.5h-1l.5-1.5ZM336.5 331l2.5.5-2.5.5v-1ZM353.5 333l1.5.5-1.5.5v-1ZM359.5 334l1.5.5-1.5.5v-1ZM368.5 335l1.5.5-1.5.5v-1ZM116.5 336l.5 2.5h-1l.5-2.5ZM375.5 336l1.5.5-1.5.5v-1ZM378.5 337l.5 91.5h-1l.5-91.5ZM105.5 340l.5 1.5h-1l.5-1.5ZM104.5 348l.5 1.5h-1l.5-1.5ZM114.5 354l.5 2.5h-1l.5-2.5ZM103.5 358l.5 1.5h-1l.5-1.5ZM102.5 365l.5 2.5h-1l.5-2.5ZM101.5 374l.5 2.5h-1l.5-2.5ZM112.5 374l.5 1.5h-1l.5-1.5ZM100.5 383l.5 2.5h-1l.5-2.5ZM111.5 383l.5 1.5h-1l.5-1.5ZM117.5 391l1.5.5-1.5.5v-1ZM99.5 392l.5 3.5h-1l.5-3.5ZM138.5 394l1.5.5-1.5.5v-1ZM144.5 395l2.5.5-2.5.5v-1ZM158.5 397l2.5.5-2.5.5v-1ZM173.5 399l1.5.5-1.5.5v-1ZM106.5 400l2.5.5-2.5.5v-1ZM179.5 400l2.5.5-2.5.5v-1ZM121.5 402l1.5.5-1.5.5v-1ZM193.5 402l1.5.5-1.5.5v-1ZM128.5 403l1.5.5-1.5.5v-1ZM201.5 403l1.5.5-1.5.5v-1ZM135.5 404l1.5.5-1.5.5v-1ZM207.5 404l1.5.5-1.5.5v-1ZM149.5 406l2.5.5-2.5.5v-1ZM221.5 406l2.5.5-2.5.5v-1ZM169.5 409l2.5.5-2.5.5v-1ZM241.5 409l2.5.5-2.5.5v-1ZM249.5 410l1.5.5-1.5.5v-1ZM183.5 411l2.5.5-2.5.5v-1ZM256.5 411l1.5.5-1.5.5v-1ZM263.5 412l1.5.5-1.5.5v-1ZM197.5 413l1.5.5-1.5.5v-1ZM270.5 413l1.5.5-1.5.5v-1ZM203.5 414l1.5.5-1.5.5v-1ZM277.5 414l1.5.5-1.5.5v-1ZM210.5 415l1.5.5-1.5.5v-1ZM284.5 415l1.5.5-1.5.5v-1ZM216.5 416l2.5.5-2.5.5v-1ZM298.5 417l1.5.5-1.5.5v-1ZM230.5 418l2.5.5-2.5.5v-1ZM304.5 418l1.5.5-1.5.5v-1ZM244.5 420l1.5.5-1.5.5v-1ZM318.5 420l2.5.5-2.5.5v-1ZM257.5 422l2.5.5-2.5.5v-1ZM333.5 422l1.5.5-1.5.5v-1ZM339.5 423l1.5.5-1.5.5v-1ZM277.5 425l2.5.5-2.5.5v-1ZM291.5 427l2.5.5-2.5.5v-1ZM366.5 427l2.5.5-2.5.5v-1ZM398.5 427l1.5.5-1.5.5v-1ZM298.5 428l1.5.5-1.5.5v-1ZM391.5 428l1.5.5-1.5.5v-1ZM306.5 429l1.5.5-1.5.5v-1ZM320.5 431l1.5.5-1.5.5v-1ZM326.5 432l1.5.5-1.5.5v-1ZM334.5 433l1.5.5-1.5.5v-1ZM341.5 434l2.5.5-2.5.5v-1ZM348.5 435l1.5.5-1.5.5v-1ZM356.5 436l1.5.5-1.5.5v-1ZM363.5 437l1.5.5-1.5.5v-1ZM405.5 437l1.5.5-1.5.5v-1ZM371.5 438l2.5.5-2.5.5v-1ZM397.5 438l1.5.5-1.5.5v-1Z"/><path fill="#B2DB90" stroke="#B2DB90" d="m154.5 71 1.5.5-1.5.5v-1ZM163.5 72l1.5.5-1.5.5v-1ZM170.5 73l2.5.5-2.5.5v-1ZM178.5 74l1.5.5-1.5.5v-1ZM186.5 75l1.5.5-1.5.5v-1ZM201.5 77l1.5.5-1.5.5v-1ZM207.5 78l1.5.5-1.5.5v-1ZM222.5 80l1.5.5-1.5.5v-1ZM229.5 81l1.5.5-1.5.5v-1ZM158.5 82l1.5.5-1.5.5v-1ZM236.5 82l1.5.5-1.5.5v-1ZM166.5 83l1.5.5-1.5.5v-1ZM172.5 84l1.5.5-1.5.5v-1ZM250.5 84l1.5.5-1.5.5v-1ZM186.5 86l1.5.5-1.5.5v-1ZM141.5 88l2.5 1.5-1.5.5-1-2ZM200.5 88l1.5.5-1.5.5v-1ZM277.5 88l1.5.5-1.5.5v-1ZM206.5 89l1.5.5-1.5.5v-1ZM283.5 89l2.5.5-2.5.5v-1ZM214.5 90l1.5.5-1.5.5v-1ZM290.5 90l1.5.5-1.5.5v-1ZM156.5 91l1.5.5-1.5.5v-1ZM219.5 91l2.5.5-2.5.5v-1ZM297.5 91l1.5.5-1.5.5v-1ZM162.5 92l1.5.5-1.5.5v-1ZM227.5 92l1.5.5-1.5.5v-1ZM303.5 92l1.5.5-1.5.5v-1ZM233.5 93l2.5.5-2.5.5v-1ZM175.5 94l1.5.5-1.5.5v-1ZM240.5 94l1.5.5-1.5.5v-1ZM316.5 94l1.5.5-1.5.5v-1ZM183.5 95l1.5.5-1.5.5v-1ZM247.5 95l1.5.5-1.5.5v-1ZM189.5 96l2.5.5-2.5.5v-1ZM330.5 96l1.5.5-1.5.5v-1ZM122.5 97l-.5 1.5-.5 1.5-.5-1.5 1.5-1.5ZM196.5 97l1.5.5-1.5.5v-1ZM127.5 98l1.5.5-1.5.5v-1ZM202.5 98l3.5.5-3.5.5v-1ZM267.5 98l1.5.5-1.5.5v-1ZM343.5 98l2.5.5-2.5.5v-1ZM141.5 100l1.5.5-1.5.5v-1ZM217.5 100l1.5.5-1.5.5v-1ZM280.5 100l1.5.5-1.5.5v-1ZM357.5 100l1.5.5-1.5.5v-1ZM288.5 101l1.5.5-1.5.5v-1ZM155.5 102l1.5.5-1.5.5v-1ZM230.5 102l1.5.5-1.5.5v-1ZM294.5 102l1.5.5-1.5.5v-1ZM371.5 102l1.5.5-1.5.5v-1ZM236.5 103l1.5.5-1.5.5v-1ZM301.5 103l1.5.5-1.5.5v-1ZM377.5 103l1.5.5-1.5.5v-1ZM109.5 104l.5 2.5h-1l.5-2.5ZM169.5 104l1.5.5-1.5.5v-1ZM308.5 104l1.5.5-1.5.5v-1ZM120.5 105l.5 2.5h-1l.5-2.5ZM175.5 105l1.5.5-1.5.5v-1ZM250.5 105l1.5.5-1.5.5v-1ZM391.5 105l2.5.5-2.5.5v-1ZM398.5 106l1.5.5-1.5.5v-1ZM188.5 107l1.5.5-1.5.5v-1ZM264.5 107l1.5.5-1.5.5v-1ZM328.5 107l1.5.5-1.5.5v-1ZM406.5 107l1.5.5-1.5.5v-1ZM202.5 109l2.5.5-2.5.5v-1ZM278.5 109l1.5.5-1.5.5v-1ZM341.5 109l2.5.5-2.5.5v-1ZM216.5 111l1.5.5-1.5.5v-1ZM291.5 111l1.5.5-1.5.5v-1ZM355.5 111l1.5.5-1.5.5v-1ZM223.5 112l1.5.5-1.5.5v-1ZM297.5 112l2.5.5-2.5.5v-1ZM362.5 112l1.5.5-1.5.5v-1ZM304.5 113l1.5.5-1.5.5v-1ZM119.5 114l.5 1.5h-1l.5-1.5ZM236.5 114l1.5.5-1.5.5v-1ZM311.5 114l2.5.5-2.5.5v-1ZM250.5 116l1.5.5-1.5.5v-1ZM325.5 116l1.5.5-1.5.5v-1ZM389.5 116l1.5.5-1.5.5v-1ZM264.5 118l1.5.5-1.5.5v-1ZM270.5 119l1.5.5-1.5.5v-1ZM107.5 120l.5 2.5h-1l.5-2.5ZM352.5 120l1.5.5-1.5.5v-1ZM284.5 121l1.5.5-1.5.5v-1ZM358.5 121l1.5.5-1.5.5v-1ZM118.5 122l.5 1.5h-1l.5-1.5ZM297.5 123l1.5.5-1.5.5v-1ZM372.5 123l1.5.5-1.5.5v-1ZM383.5 123l-1 2 1-2ZM311.5 125l1.5.5-1.5.5v-1ZM318.5 126l1.5.5-1.5.5v-1ZM325.5 127l1.5.5-1.5.5v-1ZM106.5 129l.5 1.5h-1l.5-1.5ZM117.5 130l.5 1.5h-1l.5-1.5ZM345.5 130l1.5.5-1.5.5v-1ZM392.5 131l-1 2 1-2ZM358.5 132l2.5.5-2.5.5v-1ZM372.5 134l1.5.5-1.5.5v-1ZM105.5 137l.5 2.5h-1l.5-2.5ZM116.5 138l.5 1.5h-1l.5-1.5ZM104.5 146l.5 1.5h-1l.5-1.5ZM103.5 154l.5 2.5h-1l.5-2.5ZM114.5 154l.5 1.5h-1l.5-1.5ZM112.5 170l.5 1.5h-1l.5-1.5ZM101.5 171l.5 1.5h-1l.5-1.5ZM100.5 178l.5 1.5h-1l.5-1.5ZM111.5 178l.5 1.5h-1l.5-1.5ZM110.5 187l.5 1.5h-1l.5-1.5ZM98.5 194l.5 2.5h-1l.5-2.5ZM113.5 196l1.5.5-1.5.5v-1ZM120.5 197l1.5.5-1.5.5v-1ZM128.5 198l1.5.5-1.5.5v-1ZM135.5 199l1.5.5-1.5.5v-1ZM144.5 200l1.5.5-1.5.5v-1ZM151.5 201l2.5.5-2.5.5v-1ZM98.5 203l2 3-2-3ZM167.5 203l2.5.5-2.5.5v-1ZM116.5 208l.5 1.5h-1l.5-1.5ZM205.5 208l2.5.5-2.5.5v-1ZM213.5 209l1.5.5-1.5.5v-1ZM220.5 210l3.5.5-3.5.5v-1ZM150.5 212l2.5.5-2.5.5v-1ZM237.5 212l1.5.5-1.5.5v-1ZM166.5 214l2.5.5-2.5.5v-1ZM104.5 215l.5 3.5h-1l.5-3.5ZM174.5 215l1.5.5-1.5.5v-1ZM259.5 215l1.5.5-1.5.5v-1ZM183.5 216l1.5.5-1.5.5v-1ZM268.5 216l1.5.5-1.5.5v-1ZM190.5 217l1.5.5-1.5.5v-1ZM275.5 217l1.5.5-1.5.5v-1ZM198.5 218l1.5.5-1.5.5v-1ZM283.5 218l1.5.5-1.5.5v-1ZM205.5 219l1.5.5-1.5.5v-1ZM291.5 219l2.5.5-2.5.5v-1ZM213.5 220l1.5.5-1.5.5v-1ZM220.5 221l2.5.5-2.5.5v-1ZM306.5 221l2.5.5-2.5.5v-1ZM115.5 222l.5 1.5h-1l.5-1.5ZM236.5 223l1.5.5-1.5.5v-1ZM244.5 224l1.5.5-1.5.5v-1ZM329.5 224l2.5.5-2.5.5v-1ZM337.5 225l1.5.5-1.5.5v-1ZM259.5 226l1.5.5-1.5.5v-1ZM344.5 226l3.5.5-3.5.5v-1ZM352.5 227l1.5.5-1.5.5v-1ZM274.5 228l2.5.5-2.5.5v-1ZM361.5 228l1.5.5-1.5.5v-1ZM282.5 229l1.5.5-1.5.5v-1ZM290.5 230l2.5.5-2.5.5v-1ZM376.5 230l1.5.5-1.5.5v-1ZM103.5 231l.5 4.5h-1l.5-4.5ZM306.5 232l1.5.5-1.5.5v-1ZM313.5 233l1.5.5-1.5.5v-1ZM328.5 235l2.5.5-2.5.5v-1ZM114.5 236l.5 3.5h-1l.5-3.5ZM343.5 237l3.5.5-3.5.5v-1ZM352.5 238l1.5.5-1.5.5v-1ZM359.5 239l2.5.5-2.5.5v-1ZM367.5 240l1.5.5-1.5.5v-1ZM102.5 246l.5 1.5h-1l.5-1.5ZM113.5 249l.5 1.5h-1l.5-1.5ZM101.5 262l.5 1.5h-1l.5-1.5ZM112.5 264l.5 2.5h-1l.5-2.5ZM100.5 274l.5 3.5h-1l.5-3.5ZM111.5 279l.5 6.5h-1l.5-6.5ZM99.5 291l.5 1.5h-1l.5-1.5ZM112.5 291l1.5.5-1.5.5v-1ZM120.5 292l1.5.5-1.5.5v-1ZM127.5 293l1.5.5-1.5.5v-1ZM142.5 295l2.5.5-2.5.5v-1ZM151.5 296l1.5.5-1.5.5v-1ZM158.5 297l2.5.5-2.5.5v-1ZM174.5 299l2.5.5-2.5.5v-1ZM105.5 301q3.75-.75 4.5 1.5l-.5 1.5-.5-2q-4.38 1-3.5-1ZM125.5 304l1.5.5-1.5.5v-1ZM212.5 304l2.5.5-2.5.5v-1ZM220.5 305l1.5.5-1.5.5v-1ZM140.5 306l1.5.5-1.5.5v-1ZM227.5 306l3.5.5-3.5.5v-1ZM235.5 307l1.5.5-1.5.5v-1ZM155.5 308l2.5.5-2.5.5v-1ZM243.5 308l2.5.5-2.5.5v-1ZM171.5 310l2.5.5-2.5.5v-1ZM259.5 310l1.5.5-1.5.5v-1ZM119.5 311l.5 1.5h-1l.5-1.5ZM179.5 311l1.5.5-1.5.5v-1ZM266.5 311l1.5.5-1.5.5v-1ZM108.5 312l.5 1.5h-1l.5-1.5ZM274.5 312l1.5.5-1.5.5v-1ZM194.5 313l1.5.5-1.5.5v-1ZM282.5 313l1.5.5-1.5.5v-1ZM203.5 314l1.5.5-1.5.5v-1ZM210.5 315l1.5.5-1.5.5v-1ZM297.5 315l1.5.5-1.5.5v-1ZM218.5 316l1.5.5-1.5.5v-1ZM225.5 317l2.5.5-2.5.5v-1ZM313.5 317l1.5.5-1.5.5v-1ZM233.5 318l1.5.5-1.5.5v-1ZM319.5 318l1.5.5-1.5.5v-1ZM107.5 319l.5 2.5h-1l.5-2.5ZM118.5 319l.5 3.5h-1l.5-3.5ZM241.5 319l1.5.5-1.5.5v-1ZM328.5 319l1.5.5-1.5.5v-1ZM249.5 320l1.5.5-1.5.5v-1ZM335.5 320l2.5.5-2.5.5v-1ZM343.5 321l1.5.5-1.5.5v-1ZM264.5 322l1.5.5-1.5.5v-1ZM350.5 322l3.5.5-3.5.5v-1ZM279.5 324l2.5.5-2.5.5v-1ZM366.5 324l2.5.5-2.5.5v-1ZM288.5 325l1.5.5-1.5.5v-1ZM295.5 326l2.5.5-2.5.5v-1ZM303.5 327l1.5.5-1.5.5v-1ZM106.5 329l.5 1.5h-1l.5-1.5ZM318.5 329l1.5.5-1.5.5v-1ZM334.5 331l1.5.5-1.5.5v-1ZM349.5 333l3.5.5-3.5.5v-1ZM357.5 334l1.5.5-1.5.5v-1ZM365.5 335l2.5.5-2.5.5v-1ZM373.5 336l1.5.5-1.5.5v-1ZM105.5 337l.5 2.5h-1l.5-2.5ZM116.5 339l.5 2.5h-1l.5-2.5ZM104.5 346l.5 1.5h-1l.5-1.5ZM103.5 355l.5 2.5h-1l.5-2.5ZM114.5 357l.5 2.5h-1l.5-2.5ZM102.5 363l.5 1.5h-1l.5-1.5ZM113.5 366l.5 1.5h-1l.5-1.5ZM112.5 376l.5 2.5h-1l.5-2.5ZM100.5 380l.5 2.5h-1l.5-2.5ZM111.5 385l.5 2.5h-1l.5-2.5ZM99.5 390l.5 1.5h-1l.5-1.5ZM112.5 390l1.5.5-1.5.5v-1ZM126.5 392l1.5.5-1.5.5v-1ZM132.5 393l2.5.5-2.5.5v-1ZM147.5 395l1.5.5-1.5.5v-1ZM153.5 396l1.5.5-1.5.5v-1ZM161.5 397l1.5.5-1.5.5v-1ZM167.5 398l1.5.5-1.5.5v-1ZM188.5 401l1.5.5-1.5.5v-1ZM119.5 402l1.5.5-1.5.5v-1ZM195.5 402l2.5.5-2.5.5v-1ZM133.5 404l1.5.5-1.5.5v-1ZM209.5 404l1.5.5-1.5.5v-1ZM140.5 405l1.5.5-1.5.5v-1ZM147.5 406l1.5.5-1.5.5v-1ZM154.5 407l1.5.5-1.5.5v-1ZM229.5 407l2.5.5-2.5.5v-1ZM161.5 408l2.5.5-2.5.5v-1ZM237.5 408l1.5.5-1.5.5v-1ZM167.5 409l1.5.5-1.5.5v-1ZM244.5 409l1.5.5-1.5.5v-1ZM175.5 410l1.5.5-1.5.5v-1ZM251.5 410l1.5.5-1.5.5v-1ZM181.5 411l1.5.5-1.5.5v-1ZM258.5 411l1.5.5-1.5.5v-1ZM194.5 413l2.5.5-2.5.5v-1ZM272.5 413l1.5.5-1.5.5v-1ZM208.5 415l1.5.5-1.5.5v-1ZM292.5 416l2.5.5-2.5.5v-1ZM228.5 418l1.5.5-1.5.5v-1ZM306.5 418l2.5.5-2.5.5v-1ZM313.5 419l1.5.5-1.5.5v-1ZM241.5 420l2.5.5-2.5.5v-1ZM321.5 420l1.5.5-1.5.5v-1ZM249.5 421l1.5.5-1.5.5v-1ZM255.5 422l1.5.5-1.5.5v-1ZM262.5 423l1.5.5-1.5.5v-1ZM270.5 424l1.5.5-1.5.5v-1ZM348.5 424l1.5.5-1.5.5v-1ZM354.5 425l2.5.5-2.5.5v-1ZM283.5 426l1.5.5-1.5.5v-1ZM289.5 427l1.5.5-1.5.5v-1ZM369.5 427l1.5.5-1.5.5v-1ZM396.5 427l1.5.5-1.5.5v-1ZM303.5 429l2.5.5-2.5.5v-1ZM311.5 430l1.5.5-1.5.5v-1ZM318.5 431l1.5.5-1.5.5v-1ZM339.5 434l1.5.5-1.5.5v-1ZM413.5 434l-1 2 1-2ZM353.5 436l2.5.5-2.5.5v-1ZM369.5 438l1.5.5-1.5.5v-1ZM399.5 438l1.5.5-1.5.5v-1ZM377.5 439l1.5.5-1.5.5v-1ZM392.5 439l2.5.5-2.5.5v-1ZM385.5 440l1.5.5-1.5.5v-1Z"/><path fill="#7DC444" stroke="#7DC444" opacity=".161" d="m53.5 0 2.5.5-2.5.5V0ZM456.5 0l2.5.5-2.5.5V0ZM20.5 17l-3 4 3-4ZM491.5 17l3 4-3-4ZM.5 53l.5 2.5H0L.5 53ZM511.5 53l.5 2.5h-1l.5-2.5ZM.5 456l.5 2.5H0l.5-2.5ZM511.5 456l.5 2.5h-1l.5-2.5ZM17.5 491l3 4-3-4ZM494.5 491l-3 4 3-4ZM53.5 511l2.5.5-2.5.5v-1ZM456.5 511l2.5.5-2.5.5v-1Z"/><path fill="#7EC345" stroke="#7EC345" opacity=".529" d="m57.5 0 2.5.5-2.5.5V0ZM452.5 0l2.5.5-2.5.5V0ZM51.5 1l1.5.5-1.5.5V1ZM459.5 1l1.5.5-1.5.5V1ZM41.5 4l1.5.5-1.5.5V4ZM469.5 4l1.5.5-1.5.5V4ZM23.5 15l-1 2 1-2ZM488.5 15l1 2-1-2ZM16.5 22l-1 2 1-2ZM495.5 22l1 2-1-2ZM4.5 41l.5 1.5H4l.5-1.5ZM507.5 41l.5 1.5h-1l.5-1.5ZM1.5 51l.5 1.5H1l.5-1.5ZM510.5 51l.5 1.5h-1l.5-1.5ZM.5 57l.5 2.5H0L.5 57ZM511.5 57l.5 2.5h-1l.5-2.5ZM.5 452l.5 2.5H0l.5-2.5ZM511.5 452l.5 2.5h-1l.5-2.5ZM1.5 459l.5 1.5H1l.5-1.5ZM510.5 459l.5 1.5h-1l.5-1.5ZM4.5 469l.5 1.5H4l.5-1.5ZM507.5 469l.5 1.5h-1l.5-1.5ZM15.5 488l1 2-1-2ZM496.5 488l-1 2 1-2ZM22.5 495l1 2-1-2ZM489.5 495l-1 2 1-2ZM41.5 507l1.5.5-1.5.5v-1ZM469.5 507l1.5.5-1.5.5v-1ZM51.5 510l1.5.5-1.5.5v-1ZM459.5 510l1.5.5-1.5.5v-1ZM57.5 511l2.5.5-2.5.5v-1ZM452.5 511l2.5.5-2.5.5v-1Z"/><path fill="#7CC243" stroke="#7CC243" opacity=".325" d="m25.5 13-1 2 1-2ZM486.5 13l1 2-1-2ZM14.5 24l-1 2 1-2ZM497.5 24l1 2-1-2ZM13.5 486l1 2-1-2ZM498.5 486l-1 2 1-2ZM24.5 497l1 2-1-2ZM487.5 497l-1 2 1-2Z"/></svg>