<svg viewBox="0 0 512 512" xmlns="http://www.w3.org/2000/svg"><path fill="#7EC345" stroke="#7EC345" opacity=".996" d="M60.5 0h391q28.66 3.84 43.5 21.5 13.74 14.26 17 39v391q-3.84 28.66-21.5 43.5-14.26 13.74-39 17h-391q-28.66-3.84-43.5-21.5-13.74-14.26-17-39v-391Q3.84 31.84 21.5 17q14.26-13.74 39-17ZM117 98l-4 5v237l1 1v30l3 2h279l3-3V103l-4-5H117Zm-15 285-3 1-1 3v24l4 3h309l2-1 1-2v-24l-1-3-2-1H102Z"/><path fill="#7EC345" stroke="#7EC345" opacity=".996" d="M124 109h264v253H124V109Zm13 10-3 3v228l4 3h237l3-3V122l-2-3H137Z"/><path fill="#7EC345" stroke="#7EC345" opacity=".996" d="M145 129h95v213h-95V129Zm77 37-66 66 1 3 6 4 40-39h1l4-5q2 1 1-1l4-3 4-5q2 1 1-2h2l2-3q2 1 1-2h2v-2h2v-2h2v-2l-7-7Zm0 71-5 5q-3-1-2 2l-17 16q-3-1-2 2h-1l-39 37 7 7 22-20q2 1 1-2h2l34-32 3-2 4-4v-2l-7-7ZM252.5 129q6.75-1.75 8.5 1.5v211l-.5.5H251V130.5l1.5-1.5ZM272 129h94.5l1.5 1.5V342h-96V129Zm77 37-66 66 2 4 5 3 50-48 16-16v-2l-7-7Zm0 71-44 41q-3-1-2 2h-1l-19 18 6 7q4 1 5-3 2 1 1-2h2l22-21q2 1 1-2h2v-2h2l9-9q2 1 1-2h2l10-10q2 1 1-2l9-7-4-5-3-3ZM109 394h293.5l.5.5v8.5H109.5l-.5-.5V394Z"/><path fill="#FCFDFB" stroke="#FCFDFB" d="M116.5 99h279l2.5 2.5v268l-2.5 2.5h-279l-2.5-2.5v-268l2.5-2.5Zm7.5 10v254h264V109H124Z"/><path fill="#FCFDFB" stroke="#FCFDFB" d="M137.5 119h237l2.5 2.5v229l-1.5 1.5h-239l-1.5-1.5v-37l-1-1v-190l1-2.5 2.5-1Zm6.5 10v213l2 1h94l1-1V129h-97Zm107 0v214h10V129h-10Zm20 0v213l2 1h95V129h-97Z"/><path fill="#FCFDFB" stroke="#FCFDFB" d="m221.5 167 6.5 5.5v2L185.5 217l-23 22-5.5-5.5v-2l64.5-64.5ZM348.5 167l6.5 5.5v2L322.5 207l-33 32-5.5-5.5V230l3-1.5V227h2v-2h2q-1.12-2.67 1.5-2l1.5-3h2v-2h2v-2h2q-1.12-2.67 1.5-2l1.5-3h2v-2h2q-1.12-2.67 1.5-2l1.5-3h2v-2h2v-2h2q-1.12-2.67 1.5-2l1.5-3h2v-2h2q-1.12-2.67 1.5-2l1.5-3h1.5l21-21ZM221.5 238l6.5 5.5v2l-9.5 9.5-56 50-5.5-6.5 9-7.5q-1.12-2.67 1.5-2l33-32h1.5q-1.12-2.67 1.5-2l18-17ZM348.5 238l5.5 4.5 1 2-23.5 22.5H330q1.13 2.67-1.5 2l-10 10H317q1.13 2.67-1.5 2l-9 9H305v2h-2q1.13 2.67-1.5 2l-12 11-5.5-5.5v-2l33.5-31.5h1.5q-1.12-2.67 1.5-2l28-26ZM102.5 383h307l3.5 2.5q2.8 8.7 1 22l-2.5 5.5h-311l-1.5-1.5q-2.33-8.67-1-21l2.5-6.5 2-1Zm7.5 10q-4 2-2 10l2 1h293q3-2 1-9l-1-2H110Z"/><path fill="#7CC541" stroke="#7CC541" opacity=".153" d="m53.5 0 2.5.5-2.5.5V0ZM456.5 0l2.5.5-2.5.5V0ZM30.5 9l-1 2 1-2ZM481.5 9l1 2-1-2ZM21.5 16l-5 6 5-6ZM490.5 16l5 6-5-6ZM10.5 29l-1 2 1-2ZM501.5 29l1 2-1-2ZM.5 53l.5 2.5H0L.5 53ZM511.5 53l.5 2.5h-1l.5-2.5ZM.5 456l.5 2.5H0l.5-2.5ZM511.5 456l.5 2.5h-1l.5-2.5ZM9.5 481l1 2-1-2ZM502.5 481l-1 2 1-2ZM16.5 490l5 6-5-6ZM495.5 490l-5 6 5-6ZM29.5 501l1 2-1-2ZM482.5 501l-1 2 1-2ZM53.5 511l2.5.5-2.5.5v-1ZM456.5 511l2.5.5-2.5.5v-1Z"/><path fill="#7CC243" stroke="#7CC243" opacity=".325" d="m25.5 13-1 2 1-2ZM486.5 13l1 2-1-2ZM14.5 24l-1 2 1-2ZM497.5 24l1 2-1-2ZM13.5 486l1 2-1-2ZM498.5 486l-1 2 1-2ZM24.5 497l1 2-1-2ZM487.5 497l-1 2 1-2Z"/><path fill="#7DC245" stroke="#7DC245" opacity=".533" d="m57.5 0 2.5.5-2.5.5V0ZM452.5 0l2.5.5-2.5.5V0ZM51.5 1l1.5.5-1.5.5V1ZM459.5 1l1.5.5-1.5.5V1ZM41.5 4l1.5.5-1.5.5V4ZM469.5 4l1.5.5-1.5.5V4ZM23.5 15l-1 2 1-2ZM488.5 15l1 2-1-2ZM16.5 22l-1 2 1-2ZM495.5 22l1 2-1-2ZM4.5 41l.5 1.5H4l.5-1.5ZM507.5 41l.5 1.5h-1l.5-1.5ZM1.5 51l.5 1.5H1l.5-1.5ZM510.5 51l.5 1.5h-1l.5-1.5ZM.5 57l.5 2.5H0L.5 57ZM511.5 57l.5 2.5h-1l.5-2.5ZM.5 452l.5 2.5H0l.5-2.5ZM511.5 452l.5 2.5h-1l.5-2.5ZM1.5 459l.5 1.5H1l.5-1.5ZM510.5 459l.5 1.5h-1l.5-1.5ZM4.5 469l.5 1.5H4l.5-1.5ZM507.5 469l.5 1.5h-1l.5-1.5ZM15.5 488l1 2-1-2ZM496.5 488l-1 2 1-2ZM22.5 495l1 2-1-2ZM489.5 495l-1 2 1-2ZM41.5 507l1.5.5-1.5.5v-1ZM469.5 507l1.5.5-1.5.5v-1ZM51.5 510l1.5.5-1.5.5v-1ZM459.5 510l1.5.5-1.5.5v-1ZM57.5 511l2.5.5-2.5.5v-1ZM452.5 511l2.5.5-2.5.5v-1Z"/><path fill="#B2DB91" stroke="#B2DB91" d="m116.5 98 278.5.5-278.5.5v-1ZM113.5 102l.5 237.5h-1l.5-237.5ZM398.5 102l.5 267.5h-1l.5-267.5ZM144.5 129l.5 212.5h-1l.5-212.5ZM240.5 129l.5 212.5h-1l.5-212.5ZM271.5 129l.5 212.5h-1l.5-212.5ZM224.5 168l4 5-4-5ZM351.5 168l1 2-1-2ZM354.5 171l1 2-1-2ZM355.5 174l-16 17 16-17ZM167.5 234l-4 5 4-5ZM285.5 235l2 3-2-3ZM227.5 242l1 2-1-2ZM340.5 244l-4 5 4-5ZM212.5 245l-4 5 4-5ZM226.5 247l-2 3 2-3ZM351.5 248l-3 4 3-4ZM328.5 255l-4 5 4-5ZM212.5 260l-1 2 1-2ZM337.5 261l-2 3 2-3ZM194.5 262l-4 5 4-5ZM315.5 267l-3 4 3-4ZM202.5 269l-4 5 4-5ZM324.5 273l-1 2 1-2ZM178.5 277l-5 6 5-6ZM301.5 280l-2 3 2-3ZM188.5 282l-1 2 1-2ZM312.5 284l-2 3 2-3ZM290.5 290l-5 6 5-6ZM177.5 292l-4 5 4-5ZM161.5 293l-2 3 2-3ZM299.5 296l-3 4 3-4ZM166.5 302l-2 3 2-3ZM160.5 303l2 3-2-3ZM287.5 303l1 2-1-2ZM124.5 362l263.5.5-263.5.5v-1ZM101.5 413l309.5.5-309.5.5v-1Z"/><path fill="#C1E2A5" stroke="#C1E2A5" d="m115.5 99-1 2 1-2ZM377.5 122l.5 227.5h-1l.5-227.5ZM348.5 166l-2 3 2-3ZM220.5 167 157 231.5l-.5 1.5-.5-1.5 64.5-64.5ZM344.5 170l-14 15 14-15ZM328.5 186l-1 2 1-2ZM325.5 189l-1 2 1-2ZM318.5 196l-1 2 1-2ZM309.5 205l-1 2 1-2ZM321.5 207l-31 32 31-32ZM302.5 212l-1 2 1-2ZM184.5 217l-16 17 16-17ZM293.5 221l-1 2 1-2ZM286.5 228l-1 2 1-2ZM283.5 231l.5 1.5h-1l.5-1.5ZM158.5 235l1 2-1-2ZM221.5 237l5.5 4.5-4.5-3.5-3 2 2-3ZM348.5 237l2.5 1.5-1.5-.5-3 2 2-3ZM228.5 244l.5 1.5-2 1 1.5-2.5ZM354.5 245l-2 3 2-3ZM335.5 249l-2 3 2-3ZM205.5 252l-2 3 2-3ZM217.5 255l-2 3 2-3ZM342.5 256l-4 5 4-5ZM323.5 260l-3 4 3-4ZM207.5 264l-4 5 4-5ZM189.5 267l-5 6 5-6ZM328.5 269l-1 2 1-2ZM311.5 271l-4 5 4-5ZM194.5 276l-3 4 3-4ZM315.5 281l-2 3 2-3ZM172.5 283l-5 6 5-6ZM298.5 283l-5 6 5-6ZM182.5 287l-4 5 4-5ZM301.5 294l-1 2 1-2ZM156.5 298l1 2-1-2ZM169.5 299l-2 3 2-3ZM291.5 303l-1 2 1-2ZM134.5 313l.5 36.5h-1l.5-36.5ZM145.5 342l94.5.5-94.5.5v-1ZM251.5 342l9.5.5-9.5.5v-1ZM272.5 342l95.5.5-95.5.5v-1ZM137.5 352l237.5.5-237.5.5v-1ZM114.5 370l2 2h279l2.5-1.5-2.5 2.5h-279l-2-3ZM98.5 386l.5 3.5h-1l.5-3.5ZM413.5 386l.5 2.5h-1l.5-2.5ZM109.5 393h293l1.5 1.5q2 7.5-1.5 9.5h-293l-1.5-1.5q-2-7.5 1.5-9.5Zm-.5 1v9h294v-9H109ZM98.5 407l.5 2.5h-1l.5-2.5ZM413.5 408l.5 1.5h-1l.5-1.5Z"/></svg>